{"glyphs":{"0":{"ha":1010,"x_min":39,"x_max":971,"o":"m 39 572 q 174 1011 39 856 q 506 1167 308 1167 q 837 1011 703 1167 q 971 572 971 856 q 933 301 971 418 q 830 116 896 185 q 683 13 764 47 q 506 -21 601 -21 q 328 13 410 -21 q 181 116 247 47 q 76 301 114 185 q 39 572 39 418 m 303 572 q 356 299 303 390 q 506 208 408 208 q 654 299 601 208 q 707 572 707 390 q 653 842 707 746 q 506 938 600 938 q 357 841 411 938 q 303 572 303 744 z "},"1":{"ha":574,"x_min":40,"x_max":490,"o":"m 40 676 l 40 935 l 367 1146 l 490 1146 l 490 0 l 229 0 l 229 799 l 40 676 z "},"2":{"ha":1046,"x_min":76,"x_max":969,"o":"m 504 946 q 398 891 449 946 q 324 782 347 836 l 300 728 l 82 833 q 96 869 86 847 q 142 949 106 892 q 222 1051 178 1007 q 341 1131 265 1094 q 504 1167 417 1167 q 701 1138 617 1167 q 831 1067 785 1110 q 905 967 876 1025 q 941 863 933 910 q 949 764 949 815 q 907 606 949 689 q 806 459 865 524 q 688 341 747 394 q 586 258 628 288 l 544 229 l 969 229 l 969 0 l 76 0 l 76 65 q 140 119 100 85 q 282 249 181 153 q 461 428 383 344 q 603 608 539 513 q 667 764 667 704 q 662 811 667 788 q 643 869 657 835 q 593 924 629 903 q 504 946 557 946 z "},"3":{"ha":924,"x_min":24,"x_max":879,"o":"m 285 815 l 79 915 q 88 942 82 925 q 121 1003 93 960 q 186 1079 149 1046 q 296 1140 224 1113 q 458 1167 368 1167 q 728 1073 622 1167 q 835 833 835 979 q 733 618 835 697 q 879 356 879 529 q 759 85 879 192 q 454 -21 639 -21 q 275 8 356 -21 q 149 78 194 38 q 74 161 104 119 q 33 232 44 203 l 24 261 l 265 379 q 267 360 265 372 q 282 318 269 349 q 313 265 294 288 q 367 223 331 242 q 453 204 404 204 q 572 244 526 204 q 618 356 618 285 q 570 476 618 429 q 453 524 522 524 l 403 515 l 403 686 l 460 686 q 556 728 514 686 q 597 831 597 769 q 555 921 597 885 q 456 957 513 957 q 383 942 415 957 q 333 907 350 928 q 303 865 315 886 q 289 831 292 844 l 285 815 z "},"4":{"ha":925,"x_min":-35,"x_max":907,"o":"m 774 471 l 907 471 l 907 242 l 774 242 l 774 0 l 529 0 l 529 242 l -35 242 l -35 319 l 515 1146 l 774 1146 l 774 471 m 529 797 l 526 797 l 322 471 l 529 471 l 529 797 z "},"5":{"ha":890,"x_min":25,"x_max":858,"o":"m 25 228 l 232 328 q 433 197 271 197 q 551 244 504 197 q 597 364 597 292 q 552 483 597 436 q 444 547 507 529 q 300 565 381 565 q 104 529 186 565 l 200 1146 l 785 1146 l 785 917 l 424 917 l 399 757 q 414 758 403 757 q 431 758 425 758 q 590 739 518 758 q 724 676 661 719 q 823 551 788 633 q 858 356 858 469 q 738 85 858 192 q 433 -21 618 -21 q 164 52 265 -21 q 25 228 63 125 z "},"6":{"ha":957,"x_min":33,"x_max":915,"o":"m 806 1146 l 468 753 q 550 769 497 769 q 674 744 611 769 q 791 670 736 718 q 881 543 846 622 q 915 368 915 464 q 878 194 915 271 q 780 72 842 117 q 644 3 718 26 q 490 -21 571 -21 q 165 92 297 -21 q 33 368 33 204 q 72 597 33 507 q 214 825 111 686 l 483 1146 l 806 1146 m 304 368 q 353 244 304 293 q 478 194 401 194 q 604 244 554 194 q 654 368 654 293 q 603 495 654 444 q 478 546 553 546 q 355 495 406 546 q 304 368 304 444 z "},"7":{"ha":956,"x_min":76,"x_max":990,"o":"m 990 1146 l 990 1069 l 385 0 l 76 0 l 604 917 l 111 917 l 111 1146 l 990 1146 z "},"8":{"ha":954,"x_min":49,"x_max":906,"o":"m 851 878 q 704 618 851 704 q 851 499 796 576 q 906 308 906 421 q 776 74 906 168 q 478 -21 646 -21 q 177 73 306 -21 q 49 308 49 167 q 249 618 49 526 q 97 878 97 704 q 213 1083 97 1000 q 476 1167 329 1167 q 740 1084 628 1167 q 851 878 851 1001 m 604 840 q 569 933 604 896 q 478 969 533 969 q 385 933 422 969 q 349 840 349 896 q 386 749 349 785 q 478 713 424 713 q 569 748 533 713 q 604 840 604 783 m 373 455 q 352 434 373 455 q 332 350 332 414 q 372 245 332 286 q 476 204 413 204 q 581 245 539 204 q 622 350 622 286 q 580 455 622 414 q 476 496 538 496 q 373 455 414 496 z "},"9":{"ha":957,"x_min":42,"x_max":924,"o":"m 151 0 l 489 393 q 407 376 460 376 q 283 402 346 376 q 166 476 221 428 q 76 603 111 524 q 42 778 42 682 q 78 952 42 875 q 177 1074 115 1029 q 313 1143 239 1119 q 467 1167 386 1167 q 792 1054 660 1167 q 924 778 924 942 q 885 549 924 639 q 743 321 846 460 l 474 0 l 151 0 m 653 778 q 604 902 653 853 q 479 951 556 951 q 353 902 403 951 q 303 778 303 853 q 353 651 303 701 q 479 600 404 600 q 602 651 551 600 q 653 778 653 701 z "}," ":{"ha":379,"x_min":0,"x_max":0,"o":""},"!":{"ha":485,"x_min":83,"x_max":401,"o":"m 153 375 l 119 1194 l 365 1194 l 332 375 l 153 375 m 242 297 q 355 251 308 297 q 401 138 401 204 q 355 26 401 72 q 242 -21 308 -21 q 130 26 176 -21 q 83 138 83 72 q 130 251 83 204 q 242 297 176 297 z "},"\"":{"ha":713,"x_min":83,"x_max":629,"o":"m 119 1135 q 136 1151 119 1135 q 201 1167 154 1167 q 285 1135 249 1167 q 321 1063 321 1103 l 321 1057 q 299 930 321 1029 q 256 744 278 831 l 235 660 l 142 660 q 83 1057 83 993 l 83 1063 q 119 1135 83 1103 m 427 1135 q 445 1151 427 1135 q 510 1167 463 1167 q 593 1135 557 1167 q 629 1063 629 1103 l 629 1057 q 608 930 629 1029 q 564 744 586 831 l 543 660 l 450 660 q 392 1057 392 993 l 392 1063 q 427 1135 392 1103 z "},"#":{"ha":1157,"x_min":94,"x_max":1014,"o":"m 408 304 l 329 0 l 157 0 l 236 304 l 94 304 l 139 472 l 281 472 l 333 675 l 185 675 l 229 843 l 378 843 l 457 1146 l 629 1146 l 550 843 l 700 843 l 779 1146 l 951 1146 l 872 843 l 1014 843 l 969 675 l 828 675 l 775 472 l 924 472 l 879 304 l 731 304 l 651 0 l 479 0 l 558 304 l 408 304 m 603 472 l 656 675 l 506 675 l 453 472 l 603 472 z "},"$":{"ha":933,"x_min":46,"x_max":879,"o":"m 576 1338 l 576 1142 q 716 1107 649 1132 q 815 1061 783 1082 l 847 1042 l 746 842 q 712 863 733 850 q 631 896 690 875 q 521 917 571 917 q 422 891 456 917 q 389 818 389 865 q 403 776 389 796 q 456 734 418 756 q 521 701 494 713 q 610 663 547 689 q 615 660 613 661 q 619 658 617 660 q 803 534 726 613 q 879 356 879 456 q 797 118 879 203 q 576 10 714 33 l 576 -192 l 426 -192 l 426 0 q 296 20 360 4 q 189 57 232 36 q 112 98 146 78 q 61 132 78 118 l 46 146 l 172 357 q 217 322 189 343 q 317 267 244 301 q 444 232 389 232 q 603 340 603 232 q 591 384 603 364 q 551 423 579 404 q 500 453 522 442 q 428 488 478 465 q 354 524 379 511 q 199 648 254 574 q 143 808 143 722 q 226 1022 143 932 q 426 1138 308 1111 l 426 1338 l 576 1338 z "},"%":{"ha":1363,"x_min":32,"x_max":1331,"o":"m 117 697 q 75 735 117 697 q 32 893 32 774 q 121 1090 32 1013 q 342 1167 210 1167 q 558 1090 471 1167 q 646 893 646 1013 q 560 697 646 774 q 342 619 475 619 q 117 697 203 619 m 1099 1146 l 432 0 l 268 0 l 935 1146 l 1099 1146 m 248 985 q 230 967 248 985 q 211 893 211 949 q 247 802 211 838 q 339 767 282 767 q 428 802 393 767 q 464 893 464 838 q 428 985 464 949 q 339 1022 392 1022 q 248 985 285 1022 m 806 56 q 761 95 806 56 q 717 253 717 133 q 802 449 717 372 q 1026 526 888 526 q 1245 449 1160 526 q 1331 253 1331 372 q 1243 56 1331 133 q 1026 -21 1156 -21 q 806 56 894 -21 m 931 344 q 914 326 931 344 q 896 253 896 308 q 933 160 896 197 q 1024 124 969 124 q 1113 160 1076 124 q 1149 253 1149 197 q 1113 344 1149 308 q 1024 379 1078 379 q 931 344 967 379 z "},"&":{"ha":1157,"x_min":40,"x_max":1250,"o":"m 40 301 q 64 400 40 353 q 131 486 88 447 q 218 554 174 525 q 319 614 263 583 q 204 868 204 758 q 299 1085 204 1004 q 569 1167 394 1167 q 820 1076 731 1167 q 910 868 910 986 q 886 773 910 819 q 830 694 863 726 q 764 636 797 661 q 707 599 731 611 l 683 586 l 836 428 q 1004 572 886 450 l 1165 414 q 1003 257 1088 325 l 1250 0 l 921 0 l 807 118 q 729 65 754 81 q 655 24 704 49 q 553 -11 606 -1 q 439 -21 501 -21 q 332 -12 385 -21 q 226 20 279 -3 q 132 78 172 43 q 66 170 92 113 q 40 301 40 228 m 569 982 q 494 950 519 982 q 469 868 469 918 q 490 803 469 839 q 532 747 511 768 l 553 728 q 681 868 681 797 q 569 982 681 982 m 638 292 l 456 471 q 443 466 451 469 q 414 449 435 463 q 378 420 393 436 q 349 378 363 404 q 336 322 336 351 q 375 251 336 276 q 465 226 414 226 q 550 242 507 226 q 615 275 593 258 l 638 292 z "},"'":{"ha":404,"x_min":83,"x_max":321,"o":"m 119 1135 q 136 1151 119 1135 q 201 1167 154 1167 q 285 1135 249 1167 q 321 1063 321 1103 l 321 1057 q 299 930 321 1029 q 256 744 278 831 l 235 660 l 142 660 q 83 1057 83 993 l 83 1063 q 119 1135 83 1103 z "},"(":{"ha":560,"x_min":76,"x_max":499,"o":"m 479 -293 l 319 -361 q 293 -326 310 -349 q 235 -228 276 -304 q 161 -67 193 -151 q 103 147 129 17 q 76 413 76 278 q 103 685 76 551 q 169 910 131 818 q 247 1074 208 1001 q 311 1181 285 1146 l 339 1215 l 499 1147 q 477 1119 490 1138 q 431 1032 464 1100 q 371 886 397 964 q 324 680 344 808 q 303 413 303 551 q 321 160 303 281 q 365 -40 339 39 q 417 -178 392 -118 q 461 -267 443 -239 l 479 -293 z "},")":{"ha":560,"x_min":61,"x_max":483,"o":"m 240 -361 l 81 -293 q 99 -265 88 -283 q 142 -180 111 -246 q 196 -39 172 -114 q 238 158 219 36 q 257 413 257 281 q 237 678 257 551 q 188 888 217 806 q 130 1031 158 969 q 81 1119 101 1092 l 61 1147 l 221 1215 q 249 1179 232 1203 q 312 1076 267 1156 q 392 908 357 996 q 455 686 426 821 q 483 413 483 551 q 458 149 483 278 q 397 -69 433 19 q 326 -226 361 -157 q 265 -328 290 -294 l 240 -361 z "},"*":{"ha":678,"x_min":83,"x_max":594,"o":"m 558 1081 l 594 969 l 436 913 l 528 775 l 436 713 l 339 839 l 242 713 l 150 775 l 242 913 l 83 969 l 119 1081 l 278 1032 l 279 1194 l 399 1194 l 400 1032 l 558 1081 z "},"+":{"ha":879,"x_min":83,"x_max":796,"o":"m 546 219 l 333 219 l 333 469 l 83 469 l 83 682 l 333 682 l 333 932 l 546 932 l 546 682 l 796 682 l 796 469 l 546 469 l 546 219 z "},",":{"ha":485,"x_min":83,"x_max":401,"o":"m 242 297 q 355 251 308 297 q 401 138 401 204 q 168 -261 401 -68 l 97 -203 q 122 -178 107 -194 q 165 -110 136 -161 q 203 -8 193 -60 q 117 44 150 4 q 83 138 83 83 q 130 251 83 204 q 242 297 176 297 z "},"-":{"ha":614,"x_min":83,"x_max":531,"o":"m 83 508 l 531 508 l 531 296 l 83 296 l 83 508 z "},".":{"ha":485,"x_min":83,"x_max":401,"o":"m 242 297 q 355 251 308 297 q 401 138 401 204 q 355 26 401 72 q 242 -21 308 -21 q 130 26 176 -21 q 83 138 83 72 q 130 251 83 204 q 242 297 176 297 z "},"/":{"ha":849,"x_min":32,"x_max":817,"o":"m 817 1194 l 244 -167 l 32 -167 l 604 1194 l 817 1194 z "},":":{"ha":485,"x_min":83,"x_max":401,"o":"m 242 769 q 355 723 308 769 q 401 610 401 676 q 355 498 401 544 q 242 451 308 451 q 130 498 176 451 q 83 610 83 544 q 130 723 83 676 q 242 769 176 769 m 242 297 q 355 251 308 297 q 401 138 401 204 q 355 26 401 72 q 242 -21 308 -21 q 130 26 176 -21 q 83 138 83 72 q 130 251 83 204 q 242 297 176 297 z "},";":{"ha":485,"x_min":83,"x_max":401,"o":"m 242 769 q 355 723 308 769 q 401 610 401 676 q 355 498 401 544 q 242 451 308 451 q 130 498 176 451 q 83 610 83 544 q 130 723 83 676 q 242 769 176 769 m 242 297 q 130 251 176 297 q 83 138 83 204 q 117 44 83 83 q 203 -8 150 4 q 167 -108 193 -60 q 119 -181 140 -157 l 97 -203 l 168 -261 q 401 138 401 -68 q 355 251 401 204 q 242 297 308 297 z "},"<":{"ha":919,"x_min":83,"x_max":843,"o":"m 83 660 l 843 968 l 843 771 l 346 576 l 843 385 l 843 188 l 83 496 l 83 660 z "},"=":{"ha":879,"x_min":83,"x_max":796,"o":"m 83 849 l 796 849 l 796 636 l 83 636 l 83 849 m 83 515 l 796 515 l 796 303 l 83 303 l 83 515 z "},">":{"ha":919,"x_min":76,"x_max":836,"o":"m 76 385 l 574 576 l 76 771 l 76 968 l 836 660 l 836 496 l 76 188 l 76 385 z "},"?":{"ha":828,"x_min":32,"x_max":796,"o":"m 236 806 l 32 904 q 40 934 32 910 q 74 999 49 958 q 137 1076 99 1040 q 244 1140 175 1113 q 401 1167 314 1167 q 679 1072 563 1167 q 796 835 796 978 q 561 558 796 658 q 521 520 529 544 q 513 453 513 496 l 513 375 l 283 375 l 283 526 q 286 585 283 564 q 304 633 289 607 q 349 678 319 658 q 408 710 371 692 q 464 740 446 729 q 497 776 482 751 q 513 835 513 800 q 480 917 513 885 q 400 949 447 949 q 291 905 332 949 q 236 806 250 861 m 397 297 q 510 251 464 297 q 557 138 557 204 q 510 26 557 72 q 397 -21 464 -21 q 285 26 332 -21 q 239 138 239 72 q 285 251 239 204 q 397 297 332 297 z "},"@":{"ha":1279,"x_min":32,"x_max":1249,"o":"m 997 478 q 1063 508 1043 478 q 1083 614 1083 539 q 962 881 1083 776 q 657 985 840 985 q 358 865 481 985 q 235 574 235 744 q 358 291 235 406 q 657 176 482 176 q 803 200 739 176 q 892 247 868 224 l 917 271 l 1078 164 q 1063 144 1072 157 q 1016 100 1053 132 q 935 44 979 68 q 815 -1 890 19 q 657 -21 740 -21 q 345 53 488 -21 q 117 265 203 128 q 32 574 32 401 q 117 883 32 746 q 345 1093 203 1019 q 657 1167 488 1167 q 1077 1011 906 1167 q 1249 614 1249 856 q 1165 386 1249 463 q 967 310 1082 310 q 774 374 849 310 l 761 356 q 586 281 693 281 q 398 361 472 281 q 324 560 324 442 q 398 760 324 679 q 586 842 472 842 q 761 775 692 842 l 761 826 l 926 826 l 926 536 q 929 519 926 529 q 950 494 932 510 q 997 478 968 478 m 572 644 q 555 627 572 644 q 539 563 539 611 q 570 483 539 514 q 651 451 601 451 q 730 483 699 451 q 761 563 761 515 q 729 644 761 611 q 651 676 697 676 q 572 644 604 676 z "},"A":{"ha":1089,"x_min":-39,"x_max":1128,"o":"m 665 1146 l 1128 0 l 847 0 l 763 229 l 326 229 l 242 0 l -39 0 l 424 1146 l 665 1146 m 674 458 l 546 792 l 543 792 l 415 458 l 674 458 z "},"B":{"ha":925,"x_min":83,"x_max":893,"o":"m 83 1146 l 439 1146 q 696 1077 600 1146 q 792 854 792 1008 q 649 608 792 682 q 893 319 893 565 q 793 88 893 175 q 518 0 693 0 l 83 0 l 83 1146 m 344 697 l 365 697 q 496 728 453 697 q 539 828 539 758 q 365 944 539 944 l 344 944 l 344 697 m 344 201 l 426 201 q 618 329 618 201 q 570 439 618 406 q 426 472 522 472 l 344 472 l 344 201 z "},"C":{"ha":1046,"x_min":32,"x_max":1029,"o":"m 693 236 q 809 254 753 236 q 892 289 865 272 l 918 307 l 1029 85 q 1014 74 1024 81 q 969 48 1004 67 q 893 15 933 29 q 788 -10 853 1 q 653 -21 722 -21 q 350 58 493 -21 q 119 274 207 136 q 32 571 32 411 q 83 803 32 692 q 220 993 135 914 q 419 1119 306 1072 q 653 1167 533 1167 q 858 1140 764 1167 q 990 1088 951 1114 l 1029 1061 l 918 839 q 889 859 908 847 q 811 890 869 871 q 693 910 753 910 q 524 879 599 910 q 405 799 449 849 q 338 691 361 749 q 315 574 315 633 q 413 340 315 443 q 693 236 511 236 z "},"D":{"ha":1025,"x_min":83,"x_max":993,"o":"m 83 1146 l 415 1146 q 824 983 654 1146 q 993 574 993 819 q 824 163 993 326 q 415 0 656 0 l 83 0 l 83 1146 m 344 233 l 385 233 q 619 330 528 233 q 711 572 710 426 q 620 815 711 718 q 385 913 529 913 l 344 913 l 344 233 z "},"E":{"ha":806,"x_min":83,"x_max":739,"o":"m 739 1146 l 739 917 l 344 917 l 344 689 l 722 689 l 722 460 l 344 460 l 344 229 l 739 229 l 739 0 l 83 0 l 83 1146 l 739 1146 z "},"F":{"ha":788,"x_min":83,"x_max":746,"o":"m 746 1146 l 746 917 l 344 917 l 344 689 l 715 689 l 715 460 l 344 460 l 344 0 l 83 0 l 83 1146 l 746 1146 z "},"G":{"ha":1151,"x_min":32,"x_max":1119,"o":"m 1119 642 l 1119 393 q 925 84 1075 189 q 590 -21 775 -21 q 195 153 358 -21 q 32 572 32 326 q 192 994 32 822 q 590 1167 351 1167 q 1032 971 869 1167 l 861 783 q 606 931 769 931 q 399 826 485 931 q 314 572 314 721 q 399 323 314 426 q 606 219 485 219 q 780 280 706 219 q 854 440 854 340 l 590 440 l 590 642 l 1119 642 z "},"H":{"ha":1058,"x_min":83,"x_max":975,"o":"m 344 460 l 344 0 l 83 0 l 83 1146 l 344 1146 l 344 689 l 714 689 l 714 1146 l 975 1146 l 975 0 l 714 0 l 714 460 l 344 460 z "},"I":{"ha":428,"x_min":83,"x_max":344,"o":"m 344 1146 l 344 0 l 83 0 l 83 1146 l 344 1146 z "},"J":{"ha":651,"x_min":-43,"x_max":582,"o":"m 582 1146 l 582 324 q 490 67 582 156 q 225 -21 397 -21 q 135 -10 179 -21 q 60 17 90 1 q 5 50 29 33 q -31 78 -19 67 l -43 89 l 40 307 q 189 229 122 229 q 285 269 249 229 q 321 390 321 308 l 321 1146 l 582 1146 z "},"K":{"ha":1093,"x_min":83,"x_max":1126,"o":"m 1126 0 l 767 0 l 344 486 l 344 0 l 83 0 l 83 1146 l 344 1146 l 344 678 l 738 1146 l 1054 1146 l 593 603 l 1126 0 z "},"L":{"ha":785,"x_min":83,"x_max":739,"o":"m 344 1146 l 344 229 l 739 229 l 739 0 l 83 0 l 83 1146 l 344 1146 z "},"M":{"ha":1314,"x_min":22,"x_max":1292,"o":"m 1031 0 l 976 679 l 969 679 l 735 7 l 579 7 l 344 679 l 338 679 l 283 0 l 22 0 l 125 1146 l 403 1146 l 657 485 l 911 1146 l 1189 1146 l 1292 0 l 1031 0 z "},"N":{"ha":1147,"x_min":83,"x_max":1064,"o":"m 344 711 l 344 0 l 83 0 l 83 1146 l 344 1146 l 800 435 l 803 435 l 803 1146 l 1064 1146 l 1064 0 l 803 0 l 347 711 l 344 711 z "},"O":{"ha":1218,"x_min":32,"x_max":1186,"o":"m 32 574 q 201 994 32 822 q 610 1167 371 1167 q 1018 995 850 1167 q 1186 574 1186 824 q 1021 151 1186 322 q 610 -21 856 -21 q 195 149 358 -21 q 32 574 32 319 m 314 574 q 342 409 314 483 q 439 283 369 335 q 610 232 508 232 q 830 332 756 232 q 904 574 904 432 q 828 815 904 714 q 610 915 753 915 q 391 815 468 915 q 314 574 314 714 z "},"P":{"ha":925,"x_min":83,"x_max":893,"o":"m 83 1146 l 501 1146 q 785 1056 676 1146 q 893 793 893 965 q 783 523 893 621 q 501 425 674 425 l 344 425 l 344 0 l 83 0 l 83 1146 m 344 633 l 418 633 q 562 669 506 633 q 618 785 618 704 q 562 902 618 867 q 418 938 506 938 l 344 938 l 344 633 z "},"Q":{"ha":1204,"x_min":32,"x_max":1206,"o":"m 363 -240 l 300 -146 q 311 -132 304 -140 q 340 -101 318 -124 q 383 -60 363 -78 q 432 -29 404 -43 q 483 -15 460 -15 l 483 -10 q 156 190 281 29 q 32 574 32 351 q 199 995 32 824 q 603 1167 365 1167 q 1007 995 842 1167 q 1172 574 1172 824 q 1063 214 1172 369 q 774 4 953 58 l 774 -1 q 847 -15 782 -1 q 951 -28 913 -28 q 1047 -9 1004 -28 q 1107 28 1090 10 l 1124 47 l 1206 -129 q 1197 -147 1203 -136 q 1168 -183 1190 -157 q 1119 -231 1146 -210 q 1047 -268 1092 -251 q 950 -285 1001 -285 q 743 -231 865 -285 q 532 -176 621 -176 q 441 -192 483 -176 q 381 -225 399 -208 l 363 -240 m 314 574 q 329 449 314 507 q 377 344 344 392 q 467 270 410 297 q 603 243 525 243 q 819 338 749 243 q 890 574 890 432 q 818 809 890 714 q 603 904 746 904 q 388 808 461 904 q 314 574 314 713 z "},"R":{"ha":994,"x_min":83,"x_max":1026,"o":"m 83 1146 l 493 1146 q 763 1058 658 1146 q 867 806 867 969 q 803 594 867 679 q 632 474 740 508 l 1026 0 l 694 0 l 344 453 l 344 0 l 83 0 l 83 1146 m 344 638 l 375 638 q 436 639 411 638 q 493 649 461 640 q 544 672 525 657 q 578 717 564 688 q 592 788 592 746 q 578 858 592 829 q 544 903 564 888 q 493 926 525 918 q 436 936 461 935 q 375 938 411 938 l 344 938 l 344 638 z "},"S":{"ha":933,"x_min":32,"x_max":894,"o":"m 506 1167 q 688 1140 599 1167 q 819 1086 776 1113 l 861 1058 l 756 850 q 721 872 743 858 q 638 907 699 885 q 524 929 576 929 q 423 901 458 929 q 388 826 388 874 q 404 783 388 803 q 461 740 421 763 q 532 703 501 717 q 626 661 563 689 q 816 533 738 614 q 894 349 894 451 q 859 176 894 250 q 762 61 824 103 q 625 -1 700 19 q 463 -21 550 -21 q 315 -6 388 -21 q 194 33 243 10 q 107 78 146 56 q 50 115 68 100 l 32 131 l 163 350 q 208 315 179 336 q 312 257 238 293 q 443 221 386 221 q 608 333 608 221 q 597 377 608 357 q 555 417 585 397 q 502 449 525 438 q 427 485 479 461 q 350 522 375 510 q 189 651 246 574 q 132 817 132 728 q 246 1069 132 971 q 506 1167 360 1167 z "},"T":{"ha":828,"x_min":11,"x_max":817,"o":"m 11 917 l 11 1146 l 817 1146 l 817 917 l 544 917 l 544 0 l 283 0 l 283 917 l 11 917 z "},"U":{"ha":1033,"x_min":69,"x_max":964,"o":"m 964 1146 l 964 407 q 850 88 964 196 q 517 -21 736 -21 q 183 88 297 -21 q 69 407 69 196 l 69 1146 l 331 1146 l 331 483 q 374 290 331 344 q 517 236 418 236 q 659 290 615 236 q 703 483 703 344 l 703 1146 l 964 1146 z "},"V":{"ha":1089,"x_min":-39,"x_max":1128,"o":"m 442 0 l -39 1146 l 256 1146 l 544 393 l 833 1146 l 1128 1146 l 647 0 l 442 0 z "},"W":{"ha":1557,"x_min":-21,"x_max":1578,"o":"m 963 0 l 779 643 l 596 0 l 306 0 l -21 1146 l 269 1146 l 465 360 l 472 360 l 681 1146 l 878 1146 l 1086 360 l 1093 360 l 1289 1146 l 1578 1146 l 1251 0 l 963 0 z "},"X":{"ha":1108,"x_min":-47,"x_max":1156,"o":"m 1156 0 l 818 0 l 547 390 l 276 0 l -47 0 l 386 617 l 25 1146 l 336 1146 l 547 833 l 758 1146 l 1083 1146 l 708 617 l 1156 0 z "},"Y":{"ha":1022,"x_min":-42,"x_max":1064,"o":"m -42 1146 l 272 1146 l 511 779 l 750 1146 l 1064 1146 l 642 514 l 642 0 l 381 0 l 381 514 l -42 1146 z "},"Z":{"ha":1068,"x_min":22,"x_max":1046,"o":"m 1046 1146 l 478 229 l 1008 229 l 1008 0 l 22 0 l 589 917 l 103 917 l 103 1146 l 1046 1146 z "},"[":{"ha":614,"x_min":83,"x_max":531,"o":"m 83 1194 l 531 1194 l 531 1032 l 296 1032 l 296 -199 l 531 -199 l 531 -361 l 83 -361 l 83 1194 z "},"\\":{"ha":849,"x_min":32,"x_max":817,"o":"m 604 0 l 32 1194 l 244 1194 l 817 0 l 604 0 z "},"]":{"ha":614,"x_min":83,"x_max":531,"o":"m 83 -199 l 318 -199 l 318 1032 l 83 1032 l 83 1194 l 531 1194 l 531 -361 l 83 -361 l 83 -199 z "},"^":{"ha":689,"x_min":-7,"x_max":696,"o":"m 472 840 l 344 992 l 217 840 l -7 840 l 281 1167 l 408 1167 l 696 840 l 472 840 z "},"_":{"ha":713,"x_min":0,"x_max":713,"o":"m 0 -21 l 713 -21 l 713 -139 l 0 -139 l 0 -21 z "},"`":{"ha":539,"x_min":65,"x_max":474,"o":"m 192 1167 l 474 922 l 396 815 l 65 1007 l 192 1167 z "},"a":{"ha":949,"x_min":32,"x_max":865,"o":"m 132 88 q 82 143 132 88 q 32 356 32 197 q 132 624 32 514 q 386 733 232 733 q 619 644 528 733 l 619 713 l 865 713 l 865 0 l 622 0 l 622 81 l 619 81 q 386 -21 528 -21 q 132 88 232 -21 m 341 476 q 317 453 341 476 q 293 356 293 429 q 339 235 293 282 q 460 189 385 189 q 578 236 532 189 q 625 356 625 283 q 577 476 625 429 q 460 524 529 524 q 341 476 389 524 z "},"b":{"ha":949,"x_min":83,"x_max":917,"o":"m 817 624 q 867 569 817 624 q 917 356 917 514 q 817 88 917 197 q 563 -21 717 -21 q 329 81 421 -21 l 326 81 l 326 0 l 83 0 l 83 1194 l 329 1194 l 329 644 q 563 733 421 733 q 817 624 717 733 m 610 235 q 633 259 610 235 q 656 356 656 282 q 608 476 656 429 q 489 524 560 524 q 372 476 419 524 q 324 356 324 429 q 370 236 324 283 q 489 189 417 189 q 610 235 564 189 z "},"c":{"ha":682,"x_min":32,"x_max":665,"o":"m 463 532 q 343 481 393 532 q 293 357 293 429 q 343 232 293 283 q 463 181 393 181 q 526 189 496 181 q 569 206 556 197 l 582 214 l 665 43 q 638 26 656 36 q 559 -3 621 15 q 426 -21 497 -21 q 151 90 269 -21 q 32 354 32 200 q 151 622 32 510 q 426 733 269 733 q 557 717 497 733 q 642 683 617 700 l 665 667 l 582 499 q 463 532 536 532 z "},"d":{"ha":949,"x_min":32,"x_max":865,"o":"m 132 88 q 82 143 132 88 q 32 356 32 197 q 132 624 32 514 q 386 733 232 733 q 619 644 528 733 l 619 1194 l 865 1194 l 865 0 l 622 0 l 622 81 l 619 81 q 386 -21 528 -21 q 132 88 232 -21 m 341 476 q 317 453 341 476 q 293 356 293 429 q 339 235 293 282 q 460 189 385 189 q 578 236 532 189 q 625 356 625 283 q 577 476 625 429 q 460 524 529 524 q 341 476 389 524 z "},"e":{"ha":838,"x_min":32,"x_max":806,"o":"m 804 322 l 288 322 q 336 211 288 247 q 442 175 385 175 q 536 191 501 175 q 615 254 571 207 l 793 165 q 424 -21 682 -21 q 147 90 263 -21 q 32 356 32 200 q 147 622 32 511 q 424 733 263 733 q 699 635 593 733 q 806 356 806 538 q 804 322 806 331 m 294 458 l 565 458 q 522 544 557 514 q 431 574 486 574 q 333 542 369 574 q 294 458 297 510 z "},"f":{"ha":521,"x_min":22,"x_max":607,"o":"m 125 713 l 125 864 q 200 1119 126 1024 q 404 1215 274 1215 q 510 1199 460 1215 q 583 1167 561 1183 l 607 1151 l 521 978 q 447 997 488 997 q 386 966 401 997 q 371 857 371 935 l 371 713 l 535 713 l 535 525 l 371 525 l 371 0 l 125 0 l 125 525 l 22 525 l 22 713 l 125 713 z "},"g":{"ha":949,"x_min":32,"x_max":865,"o":"m 51 -175 l 253 -76 q 446 -168 308 -168 q 565 -127 510 -168 q 619 -1 619 -86 l 619 51 q 386 -21 554 -21 q 132 88 232 -21 q 32 356 32 197 q 132 624 32 514 q 386 733 232 733 q 615 649 524 733 l 619 649 l 619 713 l 865 713 l 865 -19 q 750 -287 865 -193 q 446 -382 635 -382 q 51 -175 140 -382 m 341 476 q 317 453 341 476 q 293 356 293 429 q 339 235 293 282 q 460 189 385 189 q 578 236 532 189 q 625 356 625 283 q 577 476 625 429 q 460 524 529 524 q 341 476 389 524 z "},"h":{"ha":918,"x_min":83,"x_max":849,"o":"m 83 0 l 83 1194 l 329 1194 l 329 638 l 332 638 q 536 733 428 733 q 641 719 589 733 q 741 676 693 706 q 819 594 789 647 q 849 469 849 540 l 849 0 l 603 0 l 603 403 q 567 500 603 458 q 475 542 532 542 q 374 499 419 542 q 329 403 329 456 l 329 0 l 83 0 z "},"i":{"ha":419,"x_min":64,"x_max":356,"o":"m 107 1110 q 128 1131 107 1110 q 210 1153 150 1153 q 313 1110 269 1153 q 356 1007 356 1067 q 313 904 356 947 q 210 861 269 861 q 107 904 150 861 q 64 1007 64 947 q 107 1110 64 1067 m 83 713 l 83 0 l 329 0 l 329 713 l 83 713 z "},"j":{"ha":413,"x_min":-124,"x_max":356,"o":"m 107 1110 q 128 1131 107 1110 q 210 1153 150 1153 q 313 1110 269 1153 q 356 1007 356 1067 q 313 904 356 947 q 210 861 269 861 q 107 904 150 861 q 64 1007 64 947 q 107 1110 64 1067 m 83 713 l 83 -62 q 15 -160 83 -160 q -14 -155 1 -160 q -39 -144 -29 -150 l -47 -139 l -124 -337 q -106 -346 -121 -339 q -83 -356 -90 -353 q -57 -365 -75 -360 q -22 -374 -39 -371 q 19 -379 -6 -376 q 72 -382 44 -382 q 194 -358 142 -382 q 275 -292 247 -333 q 316 -206 303 -251 q 329 -110 329 -161 l 329 713 l 83 713 z "},"k":{"ha":897,"x_min":83,"x_max":931,"o":"m 897 713 l 558 372 l 931 0 l 614 0 l 329 285 l 329 0 l 83 0 l 83 1194 l 329 1194 l 329 464 l 578 713 l 897 713 z "},"l":{"ha":413,"x_min":83,"x_max":329,"o":"m 83 0 l 83 1194 l 329 1194 l 329 0 l 83 0 z "},"m":{"ha":1368,"x_min":83,"x_max":1299,"o":"m 83 0 l 83 713 l 329 713 l 329 638 l 332 638 q 536 733 428 733 q 682 701 614 733 q 785 603 750 669 q 1021 733 893 733 q 1217 669 1135 733 q 1299 469 1299 606 l 1299 0 l 1053 0 l 1053 403 q 1022 498 1053 460 q 928 536 990 536 q 845 503 874 536 q 814 425 817 471 l 814 0 l 568 0 l 568 403 q 537 498 568 460 q 443 536 506 536 q 358 501 386 536 q 329 417 329 465 l 329 0 l 83 0 z "},"n":{"ha":918,"x_min":83,"x_max":849,"o":"m 83 0 l 83 713 l 329 713 l 329 638 l 332 638 q 536 733 428 733 q 641 719 589 733 q 741 676 693 706 q 819 594 789 647 q 849 469 849 540 l 849 0 l 603 0 l 603 403 q 567 500 603 458 q 475 542 532 542 q 374 499 419 542 q 329 403 329 456 l 329 0 l 83 0 z "},"o":{"ha":918,"x_min":32,"x_max":886,"o":"m 151 85 q 91 138 151 85 q 32 356 32 190 q 156 627 32 521 q 461 733 279 733 q 763 626 640 733 q 886 356 886 519 q 766 85 886 192 q 461 -21 646 -21 q 151 85 269 -21 m 341 476 q 317 453 341 476 q 293 356 293 429 q 339 235 293 282 q 460 189 385 189 q 578 236 532 189 q 625 356 625 283 q 577 476 625 429 q 460 524 529 524 q 341 476 389 524 z "},"p":{"ha":949,"x_min":83,"x_max":917,"o":"m 817 624 q 867 570 817 624 q 917 357 917 515 q 817 89 917 199 q 563 -21 717 -21 q 329 68 421 -21 l 329 -361 l 83 -361 l 83 713 l 326 713 l 326 632 l 329 632 q 563 733 421 733 q 817 624 717 733 m 608 236 q 632 260 608 236 q 656 357 656 283 q 610 477 656 431 q 489 524 564 524 q 370 476 417 524 q 324 357 324 429 q 372 236 324 283 q 489 189 419 189 q 608 236 560 189 z "},"q":{"ha":949,"x_min":32,"x_max":865,"o":"m 132 89 q 82 144 132 89 q 32 357 32 199 q 132 624 32 515 q 386 733 232 733 q 619 632 528 733 l 622 632 l 622 713 l 865 713 l 865 -361 l 619 -361 l 619 68 q 386 -21 528 -21 q 132 89 232 -21 m 339 477 q 316 454 339 477 q 293 357 293 431 q 341 236 293 283 q 460 189 389 189 q 577 236 529 189 q 625 357 625 283 q 578 476 625 429 q 460 524 532 524 q 339 477 385 524 z "},"r":{"ha":692,"x_min":83,"x_max":706,"o":"m 83 0 l 83 713 l 329 713 l 329 610 l 332 610 q 341 624 335 615 q 368 653 347 632 q 413 690 389 674 q 474 720 436 707 q 550 733 511 733 q 629 722 590 733 q 686 700 668 711 l 706 689 l 603 481 q 475 519 557 519 q 399 500 431 519 q 353 453 367 481 q 335 406 340 425 q 329 375 329 386 l 329 0 l 83 0 z "},"s":{"ha":683,"x_min":32,"x_max":644,"o":"m 393 733 q 514 719 454 733 q 603 692 574 706 l 632 678 l 551 517 q 393 561 468 561 q 334 552 351 561 q 317 518 317 543 q 318 507 317 513 q 324 497 319 501 q 331 488 328 492 q 343 481 335 485 q 356 474 351 476 q 372 468 361 472 q 389 462 383 464 q 408 456 394 460 q 428 450 421 451 q 503 422 471 438 q 570 381 535 407 q 625 314 606 354 q 644 222 644 274 q 307 -21 644 -21 q 162 3 231 -21 q 63 50 93 26 l 32 75 l 132 243 q 161 220 143 233 q 226 184 179 207 q 308 161 274 161 q 385 213 385 161 q 365 249 385 236 q 299 279 346 263 q 226 310 253 296 q 121 388 160 344 q 82 504 82 432 q 166 673 82 613 q 393 733 250 733 z "},"t":{"ha":549,"x_min":22,"x_max":549,"o":"m 125 713 l 125 978 l 371 978 l 371 713 l 521 713 l 521 525 l 371 525 l 371 299 q 426 200 371 200 q 456 206 440 200 q 479 217 471 211 l 488 222 l 549 24 q 368 -21 469 -21 q 249 3 299 -21 q 173 69 199 28 q 136 155 147 110 q 125 251 125 200 l 125 525 l 22 525 l 22 713 l 125 713 z "},"u":{"ha":911,"x_min":69,"x_max":842,"o":"m 315 713 l 315 374 q 347 224 315 268 q 456 179 379 179 q 564 224 532 179 q 596 374 596 268 l 596 713 l 842 713 l 842 314 q 749 58 842 136 q 456 -21 657 -21 q 162 58 254 -21 q 69 314 69 136 l 69 713 l 315 713 z "},"v":{"ha":875,"x_min":-28,"x_max":903,"o":"m 264 713 l 438 325 l 611 713 l 903 713 l 521 0 l 354 0 l -28 713 l 264 713 z "},"w":{"ha":1369,"x_min":-28,"x_max":1397,"o":"m 521 0 l 354 0 l -28 713 l 256 713 l 429 328 l 600 713 l 769 713 l 940 328 l 1114 713 l 1397 713 l 1015 0 l 849 0 l 685 368 l 521 0 z "},"x":{"ha":908,"x_min":0,"x_max":908,"o":"m 908 0 l 611 0 l 454 201 l 297 0 l 0 0 l 304 372 l 43 713 l 331 713 l 454 547 l 578 713 l 865 713 l 604 372 l 908 0 z "},"y":{"ha":879,"x_min":-28,"x_max":907,"o":"m 624 713 l 907 713 l 347 -361 l 64 -361 l 310 111 l -28 713 l 256 713 l 454 347 l 624 713 z "},"z":{"ha":779,"x_min":7,"x_max":772,"o":"m 772 713 l 419 188 l 744 188 l 744 0 l 7 0 l 360 525 l 65 525 l 65 713 l 772 713 z "},"{":{"ha":619,"x_min":83,"x_max":536,"o":"m 83 351 l 83 482 q 181 572 181 482 l 181 943 q 190 1031 181 990 q 224 1111 200 1072 q 292 1172 247 1150 q 401 1194 338 1194 l 536 1194 l 536 1017 l 481 1017 q 418 990 443 1017 q 393 922 393 964 l 393 565 q 308 417 393 461 q 393 268 393 372 l 393 -89 q 418 -157 393 -131 q 481 -183 443 -183 l 536 -183 l 536 -361 l 401 -361 q 292 -339 338 -361 q 224 -278 247 -317 q 190 -198 200 -239 q 181 -110 181 -157 l 181 261 q 83 351 181 351 z "},"|":{"ha":379,"x_min":83,"x_max":296,"o":"m 83 0 l 83 1194 l 296 1194 l 296 0 l 83 0 z "},"}":{"ha":619,"x_min":83,"x_max":536,"o":"m 536 482 l 536 351 q 439 261 439 351 l 439 -110 q 429 -198 439 -157 q 396 -278 419 -239 q 327 -339 372 -317 q 218 -361 282 -361 l 83 -361 l 83 -183 l 139 -183 q 201 -157 176 -183 q 226 -89 226 -131 l 226 268 q 311 417 226 372 q 226 565 226 461 l 226 922 q 201 990 226 964 q 139 1017 176 1017 l 83 1017 l 83 1194 l 218 1194 q 327 1172 282 1194 q 396 1111 372 1150 q 429 1031 419 1072 q 439 943 439 990 l 439 572 q 536 482 439 482 z "},"~":{"ha":964,"x_min":83,"x_max":881,"o":"m 751 724 l 881 611 q 869 590 876 603 q 839 545 863 578 q 789 488 815 513 q 720 442 763 463 q 635 421 678 421 q 431 494 542 421 q 329 539 364 539 q 264 512 293 539 q 224 458 235 485 l 213 431 l 83 543 q 94 564 88 551 q 125 609 101 576 q 175 667 149 642 q 244 713 201 692 q 329 733 286 733 q 414 720 372 733 q 475 696 456 707 q 536 658 494 685 q 635 615 600 615 q 700 642 671 615 q 740 697 729 669 l 751 724 z "},"¡":{"ha":485,"x_min":83,"x_max":401,"o":"m 242 536 q 130 583 176 536 q 83 696 83 629 q 130 808 83 761 q 242 854 176 854 q 355 808 308 854 q 401 696 401 761 q 355 583 401 629 q 242 536 308 536 m 119 -361 l 153 458 l 332 458 l 365 -361 l 119 -361 z "},"¢":{"ha":682,"x_min":32,"x_max":665,"o":"m 344 -179 l 344 -11 q 122 119 213 17 q 32 354 32 222 q 109 575 32 476 q 303 713 186 674 l 303 883 l 453 883 l 453 732 q 568 713 515 729 q 643 681 621 696 l 665 667 l 582 499 q 463 532 536 532 q 343 481 393 532 q 293 357 293 429 q 343 232 293 283 q 463 181 393 181 q 526 189 496 181 q 569 206 556 197 l 582 214 l 665 43 q 494 -17 606 -1 l 494 -179 l 344 -179 z "},"£":{"ha":1040,"x_min":76,"x_max":988,"o":"m 76 538 l 218 538 q 146 775 146 651 q 248 1057 146 946 q 536 1168 350 1168 q 700 1141 628 1168 q 811 1075 772 1114 q 876 997 850 1036 q 908 931 901 958 l 917 904 l 697 797 q 694 815 696 804 q 679 853 692 825 q 651 901 667 881 q 604 940 635 922 q 536 957 574 957 q 439 907 474 957 q 404 775 404 857 q 408 715 404 742 q 420 660 411 688 q 434 620 429 633 q 453 576 439 607 q 471 538 468 544 l 711 538 l 711 401 l 521 401 q 525 338 525 372 q 515 281 525 308 q 496 239 506 253 l 486 225 q 565 202 488 225 q 704 179 643 179 q 763 204 739 179 q 792 254 786 229 l 797 279 l 988 185 q 983 163 986 176 q 962 113 979 149 q 919 51 944 78 q 845 1 894 24 q 733 -21 796 -21 q 501 19 642 -21 q 301 60 361 60 q 260 45 276 60 q 239 15 243 31 l 236 0 l 76 0 q 100 97 76 42 q 172 200 124 153 q 279 247 221 247 q 301 328 301 279 q 285 401 301 361 l 76 401 l 76 538 z "},"¥":{"ha":1061,"x_min":-22,"x_max":1083,"o":"m 104 153 l 104 338 l 400 338 l 400 421 l 104 421 l 104 606 l 339 606 l -22 1146 l 292 1146 l 531 779 l 769 1146 l 1083 1146 l 722 606 l 956 606 l 956 421 l 661 421 l 661 338 l 956 338 l 956 153 l 661 153 l 661 0 l 400 0 l 400 153 l 104 153 z "},"¦":{"ha":379,"x_min":83,"x_max":296,"o":"m 83 733 l 83 1194 l 296 1194 l 296 733 l 83 733 m 83 0 l 83 461 l 296 461 l 296 0 l 83 0 z "},"§":{"ha":889,"x_min":32,"x_max":850,"o":"m 400 -382 q 238 -355 310 -382 q 130 -288 167 -328 q 69 -210 93 -249 q 39 -144 44 -171 l 32 -117 l 254 -69 q 258 -81 256 -74 q 273 -107 261 -89 q 299 -139 285 -125 q 341 -165 314 -153 q 400 -176 368 -176 q 514 -100 514 -176 q 501 -61 514 -79 q 453 -22 488 -43 q 391 13 418 -1 q 306 53 364 26 q 101 194 169 117 q 32 383 32 271 q 85 529 36 463 q 218 633 133 596 q 124 736 154 679 q 94 876 94 793 q 185 1083 94 999 q 453 1167 276 1167 q 564 1153 513 1167 q 649 1117 615 1139 q 708 1069 682 1096 q 749 1015 735 1042 q 773 967 764 989 q 785 932 782 946 l 788 918 l 565 871 q 564 881 565 875 q 556 902 563 886 q 538 930 549 918 q 505 951 528 942 q 453 961 482 961 q 388 940 411 961 q 365 885 365 918 q 415 815 365 847 q 576 732 464 783 q 781 591 713 668 q 850 401 850 514 q 797 256 846 322 q 664 151 749 189 q 758 47 728 104 q 788 -92 788 -10 q 769 -188 788 -142 q 709 -281 750 -235 q 588 -354 668 -326 q 400 -382 508 -382 m 415 525 l 382 540 q 260 424 265 507 q 293 361 261 392 q 356 314 325 331 q 443 271 388 297 q 454 266 446 269 q 467 260 463 263 l 499 244 q 622 361 617 275 q 589 424 621 393 q 526 471 557 454 q 439 514 494 488 q 428 519 436 515 q 415 525 419 522 z "},"¨":{"ha":779,"x_min":97,"x_max":682,"o":"m 135 1061 q 153 1080 135 1061 q 225 1099 172 1099 q 315 1061 278 1099 q 353 971 353 1024 q 315 881 353 918 q 225 843 278 843 q 135 881 172 843 q 97 971 97 918 q 135 1061 97 1024 m 464 1061 q 483 1080 464 1061 q 554 1099 501 1099 q 644 1061 607 1099 q 682 971 682 1024 q 644 881 682 918 q 554 843 607 843 q 464 881 501 843 q 426 971 426 918 q 464 1061 426 1024 z "},"©":{"ha":1251,"x_min":32,"x_max":1219,"o":"m 32 572 q 206 992 32 818 q 625 1167 381 1167 q 1045 992 871 1167 q 1219 572 1219 818 q 1045 153 1219 328 q 625 -21 871 -21 q 206 153 381 -21 q 32 572 32 328 m 190 572 q 318 265 190 393 q 625 138 446 138 q 933 265 806 138 q 1061 572 1061 393 q 933 881 1061 753 q 625 1008 806 1008 q 318 881 446 1008 q 190 572 190 753 m 681 717 q 724 711 701 717 q 761 700 747 706 l 774 694 l 833 818 q 811 833 828 824 q 749 855 794 843 q 651 867 704 867 q 440 780 532 867 q 349 574 349 693 q 440 371 349 456 q 651 286 532 286 q 744 297 699 286 q 811 319 790 308 l 833 332 q 803 394 824 354 q 772 457 782 435 q 681 435 735 435 q 584 476 624 435 q 544 576 544 517 q 584 676 544 635 q 681 717 624 717 z "},"ª":{"ha":711,"x_min":97,"x_max":614,"o":"m 97 932 q 159 1099 97 1031 q 317 1167 221 1167 q 463 1111 403 1167 l 463 1153 l 614 1153 l 614 713 l 464 713 l 464 763 l 463 763 q 317 700 404 700 q 159 767 221 700 q 97 932 97 835 m 260 932 q 288 858 260 888 q 363 829 317 829 q 436 858 407 829 q 465 932 465 888 q 435 1007 465 978 q 363 1036 406 1036 q 290 1007 319 1036 q 260 932 260 978 z "},"«":{"ha":868,"x_min":46,"x_max":793,"o":"m 317 39 l 46 386 l 317 733 l 446 632 l 254 386 l 446 140 l 317 39 m 664 39 l 393 386 l 664 733 l 793 632 l 601 386 l 793 140 l 664 39 z "},"®":{"ha":686,"x_min":32,"x_max":654,"o":"m 32 854 q 123 1075 32 983 q 342 1167 214 1167 q 563 1075 472 1167 q 654 854 654 983 q 563 635 654 726 q 342 544 472 544 q 123 635 214 544 q 32 854 32 726 m 115 854 q 182 694 115 761 q 342 628 249 628 q 504 694 438 628 q 571 854 571 760 q 504 1016 571 949 q 342 1083 438 1083 q 182 1016 249 1083 q 115 854 115 949 m 247 1000 l 349 1000 q 417 978 390 1000 q 443 915 443 956 q 385 832 443 853 l 486 713 l 400 713 l 313 826 l 313 713 l 247 713 l 247 1000 m 313 872 l 321 872 q 372 910 372 872 q 321 949 372 949 l 313 949 l 313 872 z "},"¯":{"ha":761,"x_min":97,"x_max":664,"o":"m 97 1047 l 664 1047 l 664 881 l 97 881 l 97 1047 z "},"°":{"ha":517,"x_min":97,"x_max":419,"o":"m 142 969 q 120 990 142 969 q 97 1072 97 1010 q 144 1175 97 1135 q 258 1215 190 1215 q 373 1175 326 1215 q 419 1072 419 1135 q 374 969 419 1010 q 258 929 329 929 q 142 969 188 929 m 216 1117 q 207 1108 216 1117 q 199 1072 199 1099 q 215 1027 199 1046 q 258 1008 232 1008 q 302 1027 285 1008 q 319 1072 319 1046 q 302 1117 319 1099 q 258 1135 285 1135 q 216 1117 233 1135 z "},"±":{"ha":879,"x_min":83,"x_max":796,"o":"m 546 289 l 333 289 l 333 504 l 83 504 l 83 717 l 333 717 l 333 932 l 546 932 l 546 717 l 796 717 l 796 504 l 546 504 l 546 289 m 83 213 l 796 213 l 796 0 l 83 0 l 83 213 z "},"²":{"ha":371,"x_min":44,"x_max":393,"o":"m 211 1081 q 169 1060 189 1081 q 142 1017 150 1039 l 132 996 l 47 1038 q 52 1051 49 1043 q 70 1082 56 1060 q 101 1122 85 1104 q 148 1153 118 1139 q 211 1167 178 1167 q 303 1151 265 1167 q 356 1108 340 1135 q 378 1059 372 1082 q 385 1010 385 1036 q 345 912 385 964 q 267 831 306 860 l 228 801 l 393 801 l 393 713 l 44 713 l 44 738 q 69 759 54 746 q 124 809 85 772 q 194 879 164 846 q 250 949 225 913 q 275 1010 275 986 q 211 1081 275 1081 z "},"³":{"ha":351,"x_min":13,"x_max":339,"o":"m 113 1033 l 35 1071 q 38 1081 36 1075 q 51 1104 40 1088 q 76 1133 61 1121 q 117 1156 90 1146 q 179 1167 144 1167 q 282 1131 242 1167 q 322 1039 322 1094 q 283 957 322 988 q 339 857 339 924 q 293 753 339 793 q 178 713 247 713 q 109 724 140 713 q 61 751 78 735 q 33 783 44 767 q 17 810 21 799 l 13 821 l 106 865 q 108 847 106 858 q 129 817 111 836 q 176 799 147 799 q 223 814 206 799 q 240 857 240 829 q 222 903 240 885 q 176 921 204 921 l 158 918 l 158 983 l 179 983 q 216 999 200 983 q 232 1039 232 1015 q 215 1074 232 1060 q 178 1088 199 1088 q 137 1074 153 1088 q 117 1047 121 1061 l 113 1033 z "},"´":{"ha":786,"x_min":189,"x_max":597,"o":"m 189 922 l 471 1167 l 597 1007 l 267 815 l 189 922 z "},"¶":{"ha":983,"x_min":32,"x_max":900,"o":"m 757 0 l 757 1001 l 672 1001 l 672 0 l 529 0 l 529 425 l 396 425 q 133 533 233 425 q 32 793 32 642 q 132 1044 32 943 q 396 1146 232 1146 l 900 1146 l 900 0 l 757 0 z "},"·":{"ha":485,"x_min":83,"x_max":401,"o":"m 242 533 q 355 487 308 533 q 401 374 401 440 q 355 262 401 308 q 242 215 308 215 q 130 262 176 215 q 83 374 83 308 q 130 487 83 440 q 242 533 176 533 z "},"¸":{"ha":619,"x_min":97,"x_max":522,"o":"m 374 6 l 343 -87 q 465 -125 408 -87 q 522 -229 522 -162 q 470 -356 522 -303 q 311 -408 418 -408 q 202 -379 256 -408 q 122 -322 149 -350 l 97 -293 l 197 -218 q 213 -236 203 -225 q 253 -265 224 -247 q 311 -283 283 -283 q 364 -267 347 -283 q 381 -229 381 -251 q 354 -183 381 -199 q 294 -167 328 -167 q 254 -169 272 -167 q 231 -175 236 -172 l 224 -179 l 210 -168 l 276 36 l 374 6 z "},"¹":{"ha":194,"x_min":13,"x_max":182,"o":"m 13 968 l 13 1067 l 135 1146 l 182 1146 l 182 713 l 83 713 l 83 1014 l 13 968 z "},"º":{"ha":724,"x_min":97,"x_max":626,"o":"m 171 765 q 134 798 171 765 q 97 932 97 831 q 174 1100 97 1033 q 364 1167 251 1167 q 551 1100 475 1167 q 626 932 626 1033 q 552 765 626 831 q 364 700 478 700 q 171 765 244 700 m 290 1007 q 275 992 290 1007 q 260 932 260 978 q 288 858 260 886 q 363 829 317 829 q 436 858 407 829 q 465 932 465 888 q 435 1007 465 978 q 363 1036 406 1036 q 290 1007 319 1036 z "},"»":{"ha":868,"x_min":75,"x_max":822,"o":"m 204 733 l 475 386 l 204 39 l 75 140 l 267 386 l 75 632 l 204 733 m 422 140 l 614 386 l 422 632 l 551 733 l 822 386 l 551 39 l 422 140 z "},"¼":{"ha":1217,"x_min":83,"x_max":1169,"o":"m 83 872 l 83 1024 l 272 1146 l 344 1146 l 344 479 l 193 479 l 193 944 l 83 872 m 971 1146 l 304 0 l 140 0 l 807 1146 l 971 1146 m 1093 274 l 1169 274 l 1169 140 l 1093 140 l 1093 0 l 950 0 l 950 140 l 622 140 l 622 186 l 943 667 l 1093 667 l 1093 274 m 950 464 l 949 464 l 831 274 l 950 274 l 950 464 z "},"½":{"ha":1313,"x_min":83,"x_max":1254,"o":"m 83 872 l 83 1024 l 272 1146 l 344 1146 l 344 479 l 193 479 l 193 944 l 83 872 m 971 1146 l 304 0 l 140 0 l 807 1146 l 971 1146 m 986 543 q 925 512 954 543 q 883 450 896 481 l 869 418 l 744 478 q 753 499 747 486 q 778 544 758 511 q 824 603 799 578 q 892 649 849 628 q 986 669 936 669 q 1120 646 1065 669 q 1199 583 1175 622 q 1233 510 1224 544 q 1242 439 1242 476 q 1218 349 1242 396 q 1160 264 1194 301 q 1092 196 1126 226 q 1033 149 1057 165 l 1010 132 l 1254 132 l 1254 0 l 742 0 l 742 38 q 778 68 756 49 q 860 142 801 88 q 963 246 918 197 q 1044 349 1007 294 q 1081 439 1081 404 q 1076 478 1081 458 q 1049 520 1072 497 q 986 543 1026 543 z "},"¾":{"ha":1357,"x_min":50,"x_max":1310,"o":"m 197 951 l 81 1008 q 85 1024 82 1014 q 104 1058 89 1033 q 141 1101 119 1082 q 204 1135 163 1119 q 297 1150 246 1150 q 450 1097 390 1150 q 510 961 510 1044 q 453 839 510 883 q 536 690 536 788 q 467 536 536 597 q 294 475 399 475 q 192 492 238 475 q 121 532 146 508 q 78 579 96 556 q 56 619 61 603 l 50 636 l 188 703 q 189 692 188 699 q 197 669 190 686 q 214 638 204 651 q 244 615 224 625 q 293 604 265 604 q 361 627 335 604 q 388 690 388 650 q 360 758 388 732 q 293 785 333 785 l 265 781 l 265 878 l 297 878 q 351 901 328 878 q 375 960 375 925 q 351 1011 375 990 q 294 1032 326 1032 q 234 1012 258 1032 q 203 972 210 992 l 197 951 m 1111 1146 l 444 0 l 281 0 l 947 1146 l 1111 1146 m 1233 274 l 1310 274 l 1310 140 l 1233 140 l 1233 0 l 1090 0 l 1090 140 l 763 140 l 763 186 l 1083 667 l 1233 667 l 1233 274 m 1090 464 l 1089 464 l 971 274 l 1090 274 l 1090 464 z "},"¿":{"ha":828,"x_min":32,"x_max":796,"o":"m 431 488 q 317 534 364 488 q 271 647 271 581 q 317 759 271 713 q 431 806 364 806 q 542 759 496 806 q 589 647 589 713 q 542 534 589 581 q 431 488 496 488 m 796 -119 l 592 -21 q 537 -120 578 -76 q 428 -164 496 -164 q 348 -132 381 -164 q 315 -50 315 -100 q 331 9 315 -15 q 364 44 346 33 q 419 74 382 56 q 479 107 457 93 q 533 168 522 135 q 544 258 544 201 l 544 410 l 315 410 l 315 332 q 313 288 315 303 q 300 254 311 272 q 267 226 289 236 q 32 -50 32 126 q 149 -287 32 -193 q 426 -382 265 -382 q 583 -355 514 -382 q 691 -292 653 -328 q 754 -215 729 -256 q 788 -149 779 -174 q 796 -119 796 -125 z "},"À":{"ha":1089,"x_min":-39,"x_max":1128,"o":"m 343 1600 l 625 1356 l 547 1249 l 217 1440 l 343 1600 m 665 1146 l 1128 0 l 847 0 l 763 229 l 326 229 l 242 0 l -39 0 l 424 1146 l 665 1146 m 674 458 l 546 792 l 543 792 l 415 458 l 674 458 z "},"Á":{"ha":1089,"x_min":-39,"x_max":1128,"o":"m 463 1356 l 744 1600 l 871 1440 l 540 1249 l 463 1356 m 665 1146 l 1128 0 l 847 0 l 763 229 l 326 229 l 242 0 l -39 0 l 424 1146 l 665 1146 m 674 458 l 546 792 l 543 792 l 415 458 l 674 458 z "},"Â":{"ha":1089,"x_min":-39,"x_max":1128,"o":"m 238 1375 l 544 1600 l 851 1375 l 757 1249 l 544 1404 l 332 1249 l 238 1375 m 665 1146 l 1128 0 l 847 0 l 763 229 l 326 229 l 242 0 l -39 0 l 424 1146 l 665 1146 m 674 458 l 546 792 l 543 792 l 415 458 l 674 458 z "},"Ã":{"ha":1089,"x_min":-39,"x_max":1128,"o":"m 532 1325 q 426 1351 476 1351 q 391 1335 407 1351 q 369 1303 375 1319 l 364 1288 l 224 1288 q 228 1313 225 1297 q 247 1370 232 1329 q 280 1443 261 1411 q 334 1501 299 1475 q 413 1526 369 1526 q 472 1517 436 1526 q 533 1499 508 1508 l 557 1489 q 663 1463 613 1463 q 698 1478 682 1463 q 719 1511 714 1494 l 725 1526 l 865 1526 q 860 1501 864 1517 q 842 1444 857 1485 q 809 1371 828 1403 q 755 1313 790 1339 q 676 1288 719 1288 q 617 1297 653 1288 q 556 1315 581 1306 l 532 1325 m 665 1146 l 1128 0 l 847 0 l 763 229 l 326 229 l 242 0 l -39 0 l 424 1146 l 665 1146 m 674 458 l 546 792 l 543 792 l 415 458 l 674 458 z "},"Ä":{"ha":1089,"x_min":-39,"x_max":1128,"o":"m 289 1494 q 308 1513 289 1494 q 379 1532 326 1532 q 469 1494 432 1532 q 507 1404 507 1457 q 469 1314 507 1351 q 379 1276 432 1276 q 289 1314 326 1276 q 251 1404 251 1351 q 289 1494 251 1457 m 618 1494 q 637 1513 618 1494 q 708 1532 656 1532 q 799 1494 761 1532 q 836 1404 836 1457 q 799 1314 836 1351 q 708 1276 761 1276 q 618 1314 656 1276 q 581 1404 581 1351 q 618 1494 581 1457 m 665 1146 l 1128 0 l 847 0 l 763 229 l 326 229 l 242 0 l -39 0 l 424 1146 l 665 1146 m 674 458 l 546 792 l 543 792 l 415 458 l 674 458 z "},"Å":{"ha":1089,"x_min":-39,"x_max":1128,"o":"m 321 1451 q 385 1593 321 1538 q 544 1649 450 1649 q 704 1593 640 1649 q 768 1451 768 1538 q 706 1308 768 1364 q 544 1253 643 1253 q 383 1308 444 1253 q 321 1451 321 1364 m 460 1451 q 483 1388 460 1414 q 544 1363 507 1363 q 605 1388 581 1363 q 629 1451 629 1414 q 604 1513 629 1488 q 544 1538 579 1538 q 485 1512 510 1538 q 460 1451 460 1486 m 665 1146 l 1128 0 l 847 0 l 763 229 l 326 229 l 242 0 l -39 0 l 424 1146 l 665 1146 m 674 458 l 546 792 l 543 792 l 415 458 l 674 458 z "},"Æ":{"ha":1361,"x_min":-7,"x_max":1294,"o":"m 371 229 l 274 0 l -7 0 l 517 1146 l 1294 1146 l 1294 917 l 900 917 l 900 689 l 1278 689 l 1278 460 l 900 460 l 900 229 l 1294 229 l 1294 0 l 639 0 l 639 229 l 371 229 m 639 458 l 639 878 l 636 878 l 463 458 l 639 458 z "},"Ç":{"ha":1046,"x_min":32,"x_max":1029,"o":"m 693 236 q 809 254 753 236 q 892 289 865 272 l 918 307 l 1029 85 q 1014 74 1024 81 q 969 48 1004 67 q 893 15 933 29 q 788 -10 853 1 q 653 -21 722 -21 q 569 -15 607 -21 l 546 -87 q 668 -125 611 -87 q 725 -229 725 -162 q 673 -356 725 -303 q 514 -408 621 -408 q 405 -379 458 -408 q 325 -322 351 -350 l 300 -293 l 400 -218 q 416 -236 406 -225 q 456 -265 426 -247 q 514 -283 486 -283 q 567 -267 550 -283 q 583 -229 583 -251 q 557 -183 583 -199 q 497 -167 531 -167 q 457 -169 475 -167 q 433 -175 439 -172 l 426 -179 l 413 -168 l 469 7 q 156 221 281 65 q 32 571 32 376 q 83 803 32 692 q 220 993 135 914 q 419 1119 306 1072 q 653 1167 533 1167 q 858 1140 764 1167 q 990 1088 951 1114 l 1029 1061 l 918 839 q 889 859 908 847 q 811 890 869 871 q 693 910 753 910 q 524 879 599 910 q 405 799 449 849 q 338 691 361 749 q 315 574 315 633 q 413 340 315 443 q 693 236 511 236 z "},"È":{"ha":806,"x_min":75,"x_max":739,"o":"m 201 1600 l 483 1356 l 406 1249 l 75 1440 l 201 1600 m 739 1146 l 739 917 l 344 917 l 344 689 l 722 689 l 722 460 l 344 460 l 344 229 l 739 229 l 739 0 l 83 0 l 83 1146 l 739 1146 z "},"É":{"ha":806,"x_min":83,"x_max":739,"o":"m 239 1356 l 521 1600 l 647 1440 l 317 1249 l 239 1356 m 739 1146 l 739 917 l 344 917 l 344 689 l 722 689 l 722 460 l 344 460 l 344 229 l 739 229 l 739 0 l 83 0 l 83 1146 l 739 1146 z "},"Ê":{"ha":806,"x_min":83,"x_max":739,"o":"m 96 1375 l 403 1600 l 710 1375 l 615 1249 l 403 1404 l 190 1249 l 96 1375 m 739 1146 l 739 917 l 344 917 l 344 689 l 722 689 l 722 460 l 344 460 l 344 229 l 739 229 l 739 0 l 83 0 l 83 1146 l 739 1146 z "},"Ë":{"ha":806,"x_min":83,"x_max":739,"o":"m 147 1494 q 166 1513 147 1494 q 238 1532 185 1532 q 328 1494 290 1532 q 365 1404 365 1457 q 328 1314 365 1351 q 238 1276 290 1276 q 147 1314 185 1276 q 110 1404 110 1351 q 147 1494 110 1457 m 476 1494 q 495 1513 476 1494 q 567 1532 514 1532 q 657 1494 619 1532 q 694 1404 694 1457 q 657 1314 694 1351 q 567 1276 619 1276 q 476 1314 514 1276 q 439 1404 439 1351 q 476 1494 439 1457 m 739 1146 l 739 917 l 344 917 l 344 689 l 722 689 l 722 460 l 344 460 l 344 229 l 739 229 l 739 0 l 83 0 l 83 1146 l 739 1146 z "},"Ì":{"ha":428,"x_min":-114,"x_max":344,"o":"m 13 1600 l 294 1356 l 217 1249 l -114 1440 l 13 1600 m 344 1146 l 344 0 l 83 0 l 83 1146 l 344 1146 z "},"Í":{"ha":428,"x_min":78,"x_max":486,"o":"m 78 1356 l 360 1600 l 486 1440 l 156 1249 l 78 1356 m 344 1146 l 344 0 l 83 0 l 83 1146 l 344 1146 z "},"Î":{"ha":428,"x_min":-93,"x_max":521,"o":"m -93 1375 l 214 1600 l 521 1375 l 426 1249 l 214 1404 l 1 1249 l -93 1375 m 344 1146 l 344 0 l 83 0 l 83 1146 l 344 1146 z "},"Ï":{"ha":428,"x_min":-78,"x_max":507,"o":"m -40 1494 q -22 1513 -40 1494 q 50 1532 -3 1532 q 140 1494 103 1532 q 178 1404 178 1457 q 140 1314 178 1351 q 50 1276 103 1276 q -40 1314 -3 1276 q -78 1404 -78 1351 q -40 1494 -78 1457 m 289 1494 q 308 1513 289 1494 q 379 1532 326 1532 q 469 1494 432 1532 q 507 1404 507 1457 q 469 1314 507 1351 q 379 1276 432 1276 q 289 1314 326 1276 q 251 1404 251 1351 q 289 1494 251 1457 m 344 1146 l 344 0 l 83 0 l 83 1146 l 344 1146 z "},"Ð":{"ha":1078,"x_min":22,"x_max":1046,"o":"m 22 467 l 22 679 l 136 679 l 136 1146 l 468 1146 q 877 983 708 1146 q 1046 572 1046 819 q 876 163 1044 325 q 468 0 707 0 l 136 0 l 136 467 l 22 467 m 764 574 q 672 815 763 718 q 438 913 581 913 l 397 913 l 397 679 l 549 679 l 549 467 l 397 467 l 397 233 l 438 233 q 673 331 582 233 q 764 574 764 428 z "},"Ñ":{"ha":1147,"x_min":83,"x_max":1064,"o":"m 561 1325 q 456 1351 506 1351 q 420 1335 436 1351 q 399 1303 404 1319 l 393 1288 l 253 1288 q 258 1313 254 1297 q 276 1370 261 1329 q 309 1443 290 1411 q 363 1501 328 1475 q 442 1526 399 1526 q 501 1517 465 1526 q 561 1499 538 1508 l 586 1489 q 692 1463 642 1463 q 727 1478 711 1463 q 749 1511 743 1494 l 754 1526 l 894 1526 q 890 1501 893 1517 q 872 1444 886 1485 q 838 1371 857 1403 q 784 1313 819 1339 q 706 1288 749 1288 q 646 1297 682 1288 q 586 1315 610 1306 l 561 1325 m 344 711 l 344 0 l 83 0 l 83 1146 l 344 1146 l 800 435 l 803 435 l 803 1146 l 1064 1146 l 1064 0 l 803 0 l 347 711 l 344 711 z "},"Ò":{"ha":1218,"x_min":32,"x_max":1186,"o":"m 407 1600 l 689 1356 l 611 1249 l 281 1440 l 407 1600 m 32 574 q 201 994 32 822 q 610 1167 371 1167 q 1018 995 850 1167 q 1186 574 1186 824 q 1021 151 1186 322 q 610 -21 856 -21 q 195 149 358 -21 q 32 574 32 319 m 314 574 q 342 409 314 483 q 439 283 369 335 q 610 232 508 232 q 830 332 756 232 q 904 574 904 432 q 828 815 904 714 q 610 915 753 915 q 391 815 468 915 q 314 574 314 714 z "},"Ó":{"ha":1218,"x_min":32,"x_max":1186,"o":"m 472 1356 l 754 1600 l 881 1440 l 550 1249 l 472 1356 m 32 574 q 201 994 32 822 q 610 1167 371 1167 q 1018 995 850 1167 q 1186 574 1186 824 q 1021 151 1186 322 q 610 -21 856 -21 q 195 149 358 -21 q 32 574 32 319 m 314 574 q 342 409 314 483 q 439 283 369 335 q 610 232 508 232 q 830 332 756 232 q 904 574 904 432 q 828 815 904 714 q 610 915 753 915 q 391 815 468 915 q 314 574 314 714 z "},"Ô":{"ha":1218,"x_min":32,"x_max":1186,"o":"m 301 1375 l 608 1600 l 915 1375 l 821 1249 l 608 1404 l 396 1249 l 301 1375 m 32 574 q 201 994 32 822 q 610 1167 371 1167 q 1018 995 850 1167 q 1186 574 1186 824 q 1021 151 1186 322 q 610 -21 856 -21 q 195 149 358 -21 q 32 574 32 319 m 314 574 q 342 409 314 483 q 439 283 369 335 q 610 232 508 232 q 830 332 756 232 q 904 574 904 432 q 828 815 904 714 q 610 915 753 915 q 391 815 468 915 q 314 574 314 714 z "},"Õ":{"ha":1218,"x_min":32,"x_max":1186,"o":"m 596 1325 q 490 1351 540 1351 q 455 1335 471 1351 q 433 1303 439 1319 l 428 1288 l 288 1288 q 292 1313 289 1297 q 310 1370 296 1329 q 344 1443 325 1411 q 398 1501 363 1475 q 476 1526 433 1526 q 536 1517 500 1526 q 597 1499 572 1508 l 621 1489 q 726 1463 676 1463 q 762 1478 746 1463 q 783 1511 778 1494 l 789 1526 l 929 1526 q 924 1501 928 1517 q 906 1444 921 1485 q 873 1371 892 1403 q 819 1313 854 1339 q 740 1288 783 1288 q 681 1297 717 1288 q 619 1315 644 1306 l 596 1325 m 32 574 q 201 994 32 822 q 610 1167 371 1167 q 1018 995 850 1167 q 1186 574 1186 824 q 1021 151 1186 322 q 610 -21 856 -21 q 195 149 358 -21 q 32 574 32 319 m 314 574 q 342 409 314 483 q 439 283 369 335 q 610 232 508 232 q 830 332 756 232 q 904 574 904 432 q 828 815 904 714 q 610 915 753 915 q 391 815 468 915 q 314 574 314 714 z "},"Ö":{"ha":1218,"x_min":32,"x_max":1186,"o":"m 354 1494 q 373 1513 354 1494 q 444 1532 392 1532 q 535 1494 497 1532 q 572 1404 572 1457 q 535 1314 572 1351 q 444 1276 497 1276 q 354 1314 392 1276 q 317 1404 317 1351 q 354 1494 317 1457 m 683 1494 q 702 1513 683 1494 q 774 1532 721 1532 q 864 1494 826 1532 q 901 1404 901 1457 q 864 1314 901 1351 q 774 1276 826 1276 q 683 1314 721 1276 q 646 1404 646 1351 q 683 1494 646 1457 m 32 574 q 201 994 32 822 q 610 1167 371 1167 q 1018 995 850 1167 q 1186 574 1186 824 q 1021 151 1186 322 q 610 -21 856 -21 q 195 149 358 -21 q 32 574 32 319 m 314 574 q 342 409 314 483 q 439 283 369 335 q 610 232 508 232 q 830 332 756 232 q 904 574 904 432 q 828 815 904 714 q 610 915 753 915 q 391 815 468 915 q 314 574 314 714 z "},"×":{"ha":879,"x_min":78,"x_max":801,"o":"m 801 364 l 653 214 l 440 426 l 228 214 l 78 365 l 289 576 l 78 789 l 228 938 l 439 726 l 651 938 l 801 788 l 589 575 l 801 364 z "},"Ø":{"ha":1218,"x_min":32,"x_max":1186,"o":"m 93 82 l 169 178 q 32 574 32 342 q 201 994 32 822 q 610 1167 371 1167 q 894 1090 761 1167 l 969 1185 l 1125 1065 l 1044 964 q 1186 574 1186 797 q 1021 151 1186 322 q 610 -21 856 -21 q 319 53 450 -21 l 249 -37 l 93 82 m 314 574 q 346 400 314 476 l 733 889 q 610 915 678 915 q 391 815 468 915 q 314 574 314 714 m 904 574 q 869 744 904 667 l 482 257 q 610 232 536 232 q 830 332 756 232 q 904 574 904 432 z "},"Ù":{"ha":1033,"x_min":69,"x_max":964,"o":"m 315 1600 l 597 1356 l 519 1249 l 189 1440 l 315 1600 m 703 1146 l 703 483 q 659 290 703 344 q 517 236 615 236 q 374 290 418 236 q 331 483 331 344 l 331 1146 l 69 1146 l 69 407 q 183 88 69 196 q 517 -21 297 -21 q 850 88 736 -21 q 964 407 964 196 l 964 1146 l 703 1146 z "},"Ú":{"ha":1033,"x_min":69,"x_max":964,"o":"m 353 1356 l 635 1600 l 761 1440 l 431 1249 l 353 1356 m 703 1146 l 703 483 q 659 290 703 344 q 517 236 615 236 q 374 290 418 236 q 331 483 331 344 l 331 1146 l 69 1146 l 69 407 q 183 88 69 196 q 517 -21 297 -21 q 850 88 736 -21 q 964 407 964 196 l 964 1146 l 703 1146 z "},"Û":{"ha":1033,"x_min":69,"x_max":964,"o":"m 210 1375 l 517 1600 l 824 1375 l 729 1249 l 517 1404 l 304 1249 l 210 1375 m 703 1146 l 703 483 q 659 290 703 344 q 517 236 615 236 q 374 290 418 236 q 331 483 331 344 l 331 1146 l 69 1146 l 69 407 q 183 88 69 196 q 517 -21 297 -21 q 850 88 736 -21 q 964 407 964 196 l 964 1146 l 703 1146 z "},"Ü":{"ha":1033,"x_min":69,"x_max":964,"o":"m 261 1494 q 280 1513 261 1494 q 351 1532 299 1532 q 442 1494 404 1532 q 479 1404 479 1457 q 442 1314 479 1351 q 351 1276 404 1276 q 261 1314 299 1276 q 224 1404 224 1351 q 261 1494 224 1457 m 590 1494 q 609 1513 590 1494 q 681 1532 628 1532 q 771 1494 733 1532 q 808 1404 808 1457 q 771 1314 808 1351 q 681 1276 733 1276 q 590 1314 628 1276 q 553 1404 553 1351 q 590 1494 553 1457 m 703 1146 l 703 483 q 659 290 703 344 q 517 236 615 236 q 374 290 418 236 q 331 483 331 344 l 331 1146 l 69 1146 l 69 407 q 183 88 69 196 q 517 -21 297 -21 q 850 88 736 -21 q 964 407 964 196 l 964 1146 l 703 1146 z "},"Ý":{"ha":1022,"x_min":-42,"x_max":1064,"o":"m 349 1356 l 631 1600 l 757 1440 l 426 1249 l 349 1356 m -42 1146 l 272 1146 l 511 779 l 750 1146 l 1064 1146 l 642 514 l 642 0 l 381 0 l 381 514 l -42 1146 z "},"Þ":{"ha":925,"x_min":83,"x_max":893,"o":"m 344 1146 l 344 933 l 501 933 q 785 843 676 933 q 893 581 893 753 q 783 310 893 408 q 501 213 674 213 l 344 213 l 344 0 l 83 0 l 83 1146 l 344 1146 m 344 421 l 418 421 q 611 572 611 421 q 418 725 611 725 l 344 725 l 344 421 z "},"ß":{"ha":911,"x_min":33,"x_max":879,"o":"m 453 -21 l 453 204 q 572 249 525 204 q 618 367 618 294 q 574 493 618 446 q 453 540 531 540 l 453 728 q 559 769 515 728 q 603 875 603 811 q 569 973 603 938 q 476 1008 536 1008 q 404 974 438 1008 q 371 883 371 940 l 371 0 l 125 0 l 125 451 l 33 451 l 33 639 l 125 639 l 125 864 q 229 1116 125 1017 q 476 1215 333 1215 q 735 1116 636 1213 q 835 875 835 1019 q 696 639 835 717 q 879 354 879 554 q 759 85 879 190 q 453 -21 639 -21 z "},"à":{"ha":949,"x_min":32,"x_max":865,"o":"m 272 1167 l 554 922 l 476 815 l 146 1007 l 272 1167 m 132 624 q 82 569 132 624 q 32 356 32 514 q 132 88 32 197 q 386 -21 232 -21 q 619 81 528 -21 l 622 81 l 622 0 l 865 0 l 865 713 l 619 713 l 619 644 q 386 733 528 733 q 132 624 232 733 m 339 235 q 316 259 339 235 q 293 356 293 282 q 341 476 293 429 q 460 524 389 524 q 577 476 529 524 q 625 356 625 429 q 578 236 625 283 q 460 189 532 189 q 339 235 385 189 z "},"á":{"ha":949,"x_min":32,"x_max":865,"o":"m 393 922 l 675 1167 l 801 1007 l 471 815 l 393 922 m 132 624 q 82 569 132 624 q 32 356 32 514 q 132 88 32 197 q 386 -21 232 -21 q 619 81 528 -21 l 622 81 l 622 0 l 865 0 l 865 713 l 619 713 l 619 644 q 386 733 528 733 q 132 624 232 733 m 339 235 q 316 259 339 235 q 293 356 293 282 q 341 476 293 429 q 460 524 389 524 q 577 476 529 524 q 625 356 625 429 q 578 236 625 283 q 460 189 532 189 q 339 235 385 189 z "},"â":{"ha":949,"x_min":32,"x_max":865,"o":"m 167 942 l 474 1167 l 781 942 l 686 815 l 474 971 l 261 815 l 167 942 m 132 624 q 82 569 132 624 q 32 356 32 514 q 132 88 32 197 q 386 -21 232 -21 q 619 81 528 -21 l 622 81 l 622 0 l 865 0 l 865 713 l 619 713 l 619 644 q 386 733 528 733 q 132 624 232 733 m 339 235 q 316 259 339 235 q 293 356 293 282 q 341 476 293 429 q 460 524 389 524 q 577 476 529 524 q 625 356 625 429 q 578 236 625 283 q 460 189 532 189 q 339 235 385 189 z "},"ã":{"ha":949,"x_min":32,"x_max":865,"o":"m 461 892 q 356 918 406 918 q 320 902 336 918 q 299 869 304 886 l 293 854 l 153 854 q 158 880 154 864 q 176 937 161 896 q 209 1010 190 978 q 263 1067 228 1042 q 342 1093 299 1093 q 401 1084 365 1093 q 461 1065 438 1075 l 486 1056 q 592 1029 542 1029 q 627 1045 611 1029 q 649 1078 643 1061 l 654 1093 l 794 1093 q 790 1067 793 1083 q 772 1010 786 1051 q 738 938 757 969 q 684 880 719 906 q 606 854 649 854 q 546 863 582 854 q 486 882 510 872 l 461 892 m 132 624 q 82 569 132 624 q 32 356 32 514 q 132 88 32 197 q 386 -21 232 -21 q 619 81 528 -21 l 622 81 l 622 0 l 865 0 l 865 713 l 619 713 l 619 644 q 386 733 528 733 q 132 624 232 733 m 339 235 q 316 259 339 235 q 293 356 293 282 q 341 476 293 429 q 460 524 389 524 q 577 476 529 524 q 625 356 625 429 q 578 236 625 283 q 460 189 532 189 q 339 235 385 189 z "},"ä":{"ha":949,"x_min":32,"x_max":865,"o":"m 219 1061 q 238 1080 219 1061 q 310 1099 257 1099 q 400 1061 363 1099 q 438 971 438 1024 q 400 881 438 918 q 310 843 363 843 q 219 881 257 843 q 182 971 182 918 q 219 1061 182 1024 m 549 1061 q 567 1080 549 1061 q 639 1099 586 1099 q 729 1061 692 1099 q 767 971 767 1024 q 729 881 767 918 q 639 843 692 843 q 549 881 586 843 q 511 971 511 918 q 549 1061 511 1024 m 132 624 q 82 569 132 624 q 32 356 32 514 q 132 88 32 197 q 386 -21 232 -21 q 619 81 528 -21 l 622 81 l 622 0 l 865 0 l 865 713 l 619 713 l 619 644 q 386 733 528 733 q 132 624 232 733 m 339 235 q 316 259 339 235 q 293 356 293 282 q 341 476 293 429 q 460 524 389 524 q 577 476 529 524 q 625 356 625 429 q 578 236 625 283 q 460 189 532 189 q 339 235 385 189 z "},"å":{"ha":949,"x_min":32,"x_max":865,"o":"m 250 1018 q 315 1160 250 1104 q 474 1215 379 1215 q 633 1160 569 1215 q 697 1018 697 1104 q 635 875 697 931 q 474 819 572 819 q 312 875 374 819 q 250 1018 250 931 m 389 1018 q 413 955 389 981 q 474 929 436 929 q 534 955 510 929 q 558 1018 558 981 q 533 1079 558 1054 q 474 1104 508 1104 q 414 1078 439 1104 q 389 1018 389 1053 m 132 88 q 82 143 132 88 q 32 356 32 197 q 132 624 32 514 q 386 733 232 733 q 619 644 528 733 l 619 713 l 865 713 l 865 0 l 622 0 l 622 81 l 619 81 q 386 -21 528 -21 q 132 88 232 -21 m 341 476 q 317 453 341 476 q 293 356 293 429 q 339 235 293 282 q 460 189 385 189 q 578 236 532 189 q 625 356 625 283 q 577 476 625 429 q 460 524 529 524 q 341 476 389 524 z "},"æ":{"ha":1310,"x_min":32,"x_max":1278,"o":"m 156 496 l 78 664 q 108 683 88 672 q 198 714 128 694 q 349 733 268 733 q 643 644 531 733 q 896 733 751 733 q 1172 635 1065 733 q 1278 356 1278 538 q 1276 322 1278 331 l 760 322 q 808 211 760 247 q 914 175 857 175 q 1008 191 974 175 q 1088 254 1043 207 l 1265 165 q 896 -21 1154 -21 q 600 110 717 -21 q 589 96 596 104 q 556 65 582 88 q 497 24 529 42 q 411 -7 465 7 q 296 -21 357 -21 q 107 37 182 -21 q 32 189 32 94 q 100 353 32 288 q 286 418 168 418 q 504 364 426 418 l 504 415 q 456 503 504 469 q 349 538 407 538 q 244 527 292 538 q 175 506 196 517 l 156 496 m 767 458 l 1038 458 q 994 544 1029 514 q 903 574 958 574 q 806 542 842 574 q 767 458 769 510 m 306 267 q 291 257 306 267 q 276 210 276 247 q 307 149 276 172 q 386 126 338 126 q 469 152 433 126 q 504 210 504 178 q 469 265 504 242 q 386 288 435 288 q 306 267 336 288 z "},"ç":{"ha":682,"x_min":32,"x_max":665,"o":"m 246 -168 l 300 0 q 108 136 185 39 q 32 354 32 233 q 151 622 32 510 q 426 733 269 733 q 557 717 497 733 q 642 683 617 700 l 665 667 l 582 499 q 463 532 536 532 q 343 481 393 532 q 293 357 293 429 q 343 232 293 283 q 463 181 393 181 q 526 189 496 181 q 569 206 556 197 l 582 214 l 665 43 q 638 26 656 36 q 559 -3 621 15 q 426 -21 497 -21 q 401 -19 410 -21 l 379 -87 q 501 -125 444 -87 q 558 -229 558 -162 q 506 -356 558 -303 q 347 -408 454 -408 q 238 -379 292 -408 q 158 -322 185 -350 l 133 -293 l 233 -218 q 249 -236 239 -225 q 290 -265 260 -247 q 347 -283 319 -283 q 400 -267 383 -283 q 417 -229 417 -251 q 390 -183 417 -199 q 331 -167 364 -167 q 290 -169 308 -167 q 267 -175 272 -172 l 260 -179 l 246 -168 z "},"è":{"ha":838,"x_min":32,"x_max":806,"o":"m 217 1167 l 499 922 l 421 815 l 90 1007 l 217 1167 m 804 322 l 288 322 q 336 211 288 247 q 442 175 385 175 q 536 191 501 175 q 615 254 571 207 l 793 165 q 424 -21 682 -21 q 147 90 263 -21 q 32 356 32 200 q 147 622 32 511 q 424 733 263 733 q 699 635 593 733 q 806 356 806 538 q 804 322 806 331 m 294 458 l 565 458 q 522 544 557 514 q 431 574 486 574 q 333 542 369 574 q 294 458 297 510 z "},"é":{"ha":838,"x_min":32,"x_max":806,"o":"m 338 922 l 619 1167 l 746 1007 l 415 815 l 338 922 m 804 322 l 288 322 q 336 211 288 247 q 442 175 385 175 q 536 191 501 175 q 615 254 571 207 l 793 165 q 424 -21 682 -21 q 147 90 263 -21 q 32 356 32 200 q 147 622 32 511 q 424 733 263 733 q 699 635 593 733 q 806 356 806 538 q 804 322 806 331 m 294 458 l 565 458 q 522 544 557 514 q 431 574 486 574 q 333 542 369 574 q 294 458 297 510 z "},"ê":{"ha":838,"x_min":32,"x_max":806,"o":"m 111 942 l 418 1167 l 725 942 l 631 815 l 418 971 l 206 815 l 111 942 m 804 322 l 288 322 q 336 211 288 247 q 442 175 385 175 q 536 191 501 175 q 615 254 571 207 l 793 165 q 424 -21 682 -21 q 147 90 263 -21 q 32 356 32 200 q 147 622 32 511 q 424 733 263 733 q 699 635 593 733 q 806 356 806 538 q 804 322 806 331 m 294 458 l 565 458 q 522 544 557 514 q 431 574 486 574 q 333 542 369 574 q 294 458 297 510 z "},"ë":{"ha":838,"x_min":32,"x_max":806,"o":"m 164 1061 q 183 1080 164 1061 q 254 1099 201 1099 q 344 1061 307 1099 q 382 971 382 1024 q 344 881 382 918 q 254 843 307 843 q 164 881 201 843 q 126 971 126 918 q 164 1061 126 1024 m 493 1061 q 512 1080 493 1061 q 583 1099 531 1099 q 674 1061 636 1099 q 711 971 711 1024 q 674 881 711 918 q 583 843 636 843 q 493 881 531 843 q 456 971 456 918 q 493 1061 456 1024 m 804 322 l 288 322 q 336 211 288 247 q 442 175 385 175 q 536 191 501 175 q 615 254 571 207 l 793 165 q 424 -21 682 -21 q 147 90 263 -21 q 32 356 32 200 q 147 622 32 511 q 424 733 263 733 q 699 635 593 733 q 806 356 806 538 q 804 322 806 331 m 294 458 l 565 458 q 522 544 557 514 q 431 574 486 574 q 333 542 369 574 q 294 458 297 510 z "},"ì":{"ha":413,"x_min":-121,"x_max":329,"o":"m 6 1167 l 288 922 l 210 815 l -121 1007 l 6 1167 m 83 713 l 83 0 l 329 0 l 329 713 l 83 713 z "},"í":{"ha":413,"x_min":83,"x_max":533,"o":"m 125 922 l 407 1167 l 533 1007 l 203 815 l 125 922 m 83 713 l 83 0 l 329 0 l 329 713 l 83 713 z "},"î":{"ha":413,"x_min":-100,"x_max":514,"o":"m -100 942 l 207 1167 l 514 942 l 419 815 l 207 971 l -6 815 l -100 942 m 83 713 l 83 0 l 329 0 l 329 713 l 83 713 z "},"ï":{"ha":413,"x_min":-86,"x_max":499,"o":"m -49 1061 q -30 1080 -49 1061 q 42 1099 -11 1099 q 132 1061 94 1099 q 169 971 169 1024 q 132 881 169 918 q 42 843 94 843 q -49 881 -11 843 q -86 971 -86 918 q -49 1061 -86 1024 m 281 1061 q 299 1080 281 1061 q 371 1099 318 1099 q 461 1061 424 1099 q 499 971 499 1024 q 461 881 499 918 q 371 843 424 843 q 281 881 318 843 q 243 971 243 918 q 281 1061 243 1024 m 83 713 l 83 0 l 329 0 l 329 713 l 83 713 z "},"ð":{"ha":950,"x_min":57,"x_max":911,"o":"m 57 356 q 115 555 57 465 q 255 689 174 644 q 415 733 336 733 q 540 711 500 733 q 378 871 479 799 l 263 757 l 156 864 l 242 950 q 164 983 203 968 q 106 1003 125 997 l 88 1007 l 146 1215 q 407 1115 264 1189 l 508 1215 l 614 1107 l 542 1035 q 911 356 911 775 q 791 85 911 192 q 486 -21 671 -21 q 176 85 294 -21 q 57 356 57 190 m 366 476 q 342 453 366 476 q 318 356 318 429 q 364 235 318 282 q 485 189 410 189 q 603 236 557 189 q 650 356 650 283 l 650 363 q 599 478 647 433 q 485 524 551 524 q 366 476 414 524 z "},"ñ":{"ha":918,"x_min":83,"x_max":849,"o":"m 446 892 q 340 918 390 918 q 305 902 321 918 q 283 869 289 886 l 278 854 l 138 854 q 142 880 139 864 q 160 937 146 896 q 194 1010 175 978 q 248 1067 213 1042 q 326 1093 283 1093 q 386 1084 350 1093 q 447 1065 422 1075 l 471 1056 q 576 1029 526 1029 q 612 1045 596 1029 q 633 1078 628 1061 l 639 1093 l 779 1093 q 774 1067 778 1083 q 756 1010 771 1051 q 723 938 742 969 q 669 880 704 906 q 590 854 633 854 q 531 863 567 854 q 469 882 494 872 l 446 892 m 329 0 l 329 403 q 374 499 329 456 q 475 542 419 542 q 567 500 532 542 q 603 403 603 458 l 603 0 l 849 0 l 849 469 q 819 594 849 540 q 741 676 789 647 q 641 719 693 706 q 536 733 589 733 q 332 638 428 733 l 329 638 l 329 713 l 83 713 l 83 0 l 329 0 z "},"ò":{"ha":918,"x_min":32,"x_max":886,"o":"m 257 1167 l 539 922 l 461 815 l 131 1007 l 257 1167 m 156 627 q 94 574 156 627 q 32 356 32 521 q 151 85 32 190 q 461 -21 269 -21 q 766 85 646 -21 q 886 356 886 192 q 763 626 886 519 q 461 733 640 733 q 156 627 279 733 m 339 235 q 316 259 339 235 q 293 356 293 282 q 341 476 293 429 q 460 524 389 524 q 577 476 529 524 q 625 356 625 429 q 578 236 625 283 q 460 189 532 189 q 339 235 385 189 z "},"ó":{"ha":918,"x_min":32,"x_max":886,"o":"m 322 922 l 604 1167 l 731 1007 l 400 815 l 322 922 m 156 627 q 94 574 156 627 q 32 356 32 521 q 151 85 32 190 q 461 -21 269 -21 q 766 85 646 -21 q 886 356 886 192 q 763 626 886 519 q 461 733 640 733 q 156 627 279 733 m 339 235 q 316 259 339 235 q 293 356 293 282 q 341 476 293 429 q 460 524 389 524 q 577 476 529 524 q 625 356 625 429 q 578 236 625 283 q 460 189 532 189 q 339 235 385 189 z "},"ô":{"ha":918,"x_min":32,"x_max":886,"o":"m 151 942 l 458 1167 l 765 942 l 671 815 l 458 971 l 246 815 l 151 942 m 156 627 q 94 574 156 627 q 32 356 32 521 q 151 85 32 190 q 461 -21 269 -21 q 766 85 646 -21 q 886 356 886 192 q 763 626 886 519 q 461 733 640 733 q 156 627 279 733 m 339 235 q 316 259 339 235 q 293 356 293 282 q 341 476 293 429 q 460 524 389 524 q 577 476 529 524 q 625 356 625 429 q 578 236 625 283 q 460 189 532 189 q 339 235 385 189 z "},"õ":{"ha":918,"x_min":32,"x_max":886,"o":"m 446 892 q 340 918 390 918 q 305 902 321 918 q 283 869 289 886 l 278 854 l 138 854 q 142 880 139 864 q 160 937 146 896 q 194 1010 175 978 q 248 1067 213 1042 q 326 1093 283 1093 q 386 1084 350 1093 q 447 1065 422 1075 l 471 1056 q 576 1029 526 1029 q 612 1045 596 1029 q 633 1078 628 1061 l 639 1093 l 779 1093 q 774 1067 778 1083 q 756 1010 771 1051 q 723 938 742 969 q 669 880 704 906 q 590 854 633 854 q 531 863 567 854 q 469 882 494 872 l 446 892 m 156 627 q 94 574 156 627 q 32 356 32 521 q 151 85 32 190 q 461 -21 269 -21 q 766 85 646 -21 q 886 356 886 192 q 763 626 886 519 q 461 733 640 733 q 156 627 279 733 m 339 235 q 316 259 339 235 q 293 356 293 282 q 341 476 293 429 q 460 524 389 524 q 577 476 529 524 q 625 356 625 429 q 578 236 625 283 q 460 189 532 189 q 339 235 385 189 z "},"ö":{"ha":918,"x_min":32,"x_max":886,"o":"m 204 1061 q 223 1080 204 1061 q 294 1099 242 1099 q 385 1061 347 1099 q 422 971 422 1024 q 385 881 422 918 q 294 843 347 843 q 204 881 242 843 q 167 971 167 918 q 204 1061 167 1024 m 533 1061 q 552 1080 533 1061 q 624 1099 571 1099 q 714 1061 676 1099 q 751 971 751 1024 q 714 881 751 918 q 624 843 676 843 q 533 881 571 843 q 496 971 496 918 q 533 1061 496 1024 m 156 627 q 94 574 156 627 q 32 356 32 521 q 151 85 32 190 q 461 -21 269 -21 q 766 85 646 -21 q 886 356 886 192 q 763 626 886 519 q 461 733 640 733 q 156 627 279 733 m 339 235 q 316 259 339 235 q 293 356 293 282 q 341 476 293 429 q 460 524 389 524 q 577 476 529 524 q 625 356 625 429 q 578 236 625 283 q 460 189 532 189 q 339 235 385 189 z "},"÷":{"ha":879,"x_min":83,"x_max":796,"o":"m 438 1000 q 519 967 486 1000 q 551 886 551 933 q 518 808 551 840 q 438 775 485 775 q 359 808 392 775 q 326 886 326 840 q 359 967 326 933 q 438 1000 392 1000 m 83 682 l 796 682 l 796 469 l 83 469 l 83 682 m 438 376 q 519 344 486 376 q 551 263 551 311 q 518 184 551 217 q 438 151 485 151 q 359 184 392 151 q 326 263 326 217 q 359 343 326 310 q 438 376 392 376 z "},"ø":{"ha":918,"x_min":-10,"x_max":928,"o":"m 928 672 l 810 576 q 886 356 886 482 q 766 85 886 192 q 461 -21 646 -21 q 176 64 289 -21 l 53 -36 l -10 39 l 106 132 q 32 356 32 228 q 156 627 32 521 q 461 733 279 733 q 740 646 622 733 l 865 747 l 928 672 m 293 356 q 303 292 293 319 l 554 494 q 460 524 511 524 q 341 476 389 524 q 293 356 293 429 m 460 189 q 578 236 532 189 q 625 356 625 283 q 614 418 625 388 l 364 215 q 460 189 406 189 z "},"ù":{"ha":911,"x_min":69,"x_max":842,"o":"m 254 1167 l 536 922 l 458 815 l 128 1007 l 254 1167 m 69 713 l 69 314 q 162 58 69 136 q 456 -21 254 -21 q 749 58 657 -21 q 842 314 842 136 l 842 713 l 596 713 l 596 374 q 564 224 596 268 q 456 179 532 179 q 347 224 379 179 q 315 374 315 268 l 315 713 l 69 713 z "},"ú":{"ha":911,"x_min":69,"x_max":842,"o":"m 374 922 l 656 1167 l 782 1007 l 451 815 l 374 922 m 69 713 l 69 314 q 162 58 69 136 q 456 -21 254 -21 q 749 58 657 -21 q 842 314 842 136 l 842 713 l 596 713 l 596 374 q 564 224 596 268 q 456 179 532 179 q 347 224 379 179 q 315 374 315 268 l 315 713 l 69 713 z "},"û":{"ha":911,"x_min":69,"x_max":842,"o":"m 149 942 l 456 1167 l 763 942 l 668 815 l 456 971 l 243 815 l 149 942 m 69 713 l 69 314 q 162 58 69 136 q 456 -21 254 -21 q 749 58 657 -21 q 842 314 842 136 l 842 713 l 596 713 l 596 374 q 564 224 596 268 q 456 179 532 179 q 347 224 379 179 q 315 374 315 268 l 315 713 l 69 713 z "},"ü":{"ha":911,"x_min":69,"x_max":842,"o":"m 200 1061 q 219 1080 200 1061 q 290 1099 238 1099 q 381 1061 343 1099 q 418 971 418 1024 q 381 881 418 918 q 290 843 343 843 q 200 881 238 843 q 163 971 163 918 q 200 1061 163 1024 m 529 1061 q 548 1080 529 1061 q 619 1099 567 1099 q 710 1061 672 1099 q 747 971 747 1024 q 710 881 747 918 q 619 843 672 843 q 529 881 567 843 q 492 971 492 918 q 529 1061 492 1024 m 69 713 l 69 314 q 162 58 69 136 q 456 -21 254 -21 q 749 58 657 -21 q 842 314 842 136 l 842 713 l 596 713 l 596 374 q 564 224 596 268 q 456 179 532 179 q 347 224 379 179 q 315 374 315 268 l 315 713 l 69 713 z "},"ý":{"ha":879,"x_min":-28,"x_max":907,"o":"m 304 922 l 586 1167 l 713 1007 l 382 815 l 304 922 m 624 713 l 907 713 l 347 -361 l 64 -361 l 310 111 l -28 713 l 256 713 l 454 347 l 624 713 z "},"þ":{"ha":949,"x_min":83,"x_max":917,"o":"m 817 624 q 867 569 817 624 q 917 356 917 514 q 817 88 917 197 q 563 -21 717 -21 q 329 81 421 -21 l 326 81 l 326 -361 l 83 -361 l 83 1194 l 329 1194 l 329 644 q 563 733 421 733 q 817 624 717 733 m 610 235 q 633 259 610 235 q 656 356 656 282 q 608 476 656 429 q 489 524 560 524 q 372 476 419 524 q 324 356 324 429 q 370 236 324 283 q 489 189 417 189 q 610 235 564 189 z "},"ÿ":{"ha":879,"x_min":-28,"x_max":907,"o":"m 185 1061 q 203 1080 185 1061 q 275 1099 222 1099 q 365 1061 328 1099 q 403 971 403 1024 q 365 881 403 918 q 275 843 328 843 q 185 881 222 843 q 147 971 147 918 q 185 1061 147 1024 m 514 1061 q 533 1080 514 1061 q 604 1099 551 1099 q 694 1061 657 1099 q 732 971 732 1024 q 694 881 732 918 q 604 843 657 843 q 514 881 551 843 q 476 971 476 918 q 514 1061 476 1024 m 624 713 l 907 713 l 347 -361 l 64 -361 l 310 111 l -28 713 l 256 713 l 454 347 l 624 713 z "},"Ā":{"ha":1089,"x_min":-39,"x_max":1128,"o":"m 261 1481 l 828 1481 l 828 1314 l 261 1314 l 261 1481 m 665 1146 l 1128 0 l 847 0 l 763 229 l 326 229 l 242 0 l -39 0 l 424 1146 l 665 1146 m 674 458 l 546 792 l 543 792 l 415 458 l 674 458 z "},"ā":{"ha":949,"x_min":32,"x_max":865,"o":"m 190 1047 l 757 1047 l 757 881 l 190 881 l 190 1047 m 132 624 q 82 569 132 624 q 32 356 32 514 q 132 88 32 197 q 386 -21 232 -21 q 619 81 528 -21 l 622 81 l 622 0 l 865 0 l 865 713 l 619 713 l 619 644 q 386 733 528 733 q 132 624 232 733 m 339 235 q 316 259 339 235 q 293 356 293 282 q 341 476 293 429 q 460 524 389 524 q 577 476 529 524 q 625 356 625 429 q 578 236 625 283 q 460 189 532 189 q 339 235 385 189 z "},"Ă":{"ha":1089,"x_min":-39,"x_max":1128,"o":"m 690 1600 l 865 1557 q 765 1375 853 1444 q 544 1306 678 1306 q 324 1375 411 1306 q 224 1557 236 1444 l 399 1600 q 401 1585 399 1594 q 413 1550 403 1575 q 437 1506 422 1525 q 480 1472 451 1488 q 544 1457 508 1457 q 609 1472 581 1457 q 652 1507 638 1486 q 676 1549 667 1528 q 689 1586 686 1571 l 690 1600 m 665 1146 l 1128 0 l 847 0 l 763 229 l 326 229 l 242 0 l -39 0 l 424 1146 l 665 1146 m 674 458 l 546 792 l 543 792 l 415 458 l 674 458 z "},"ă":{"ha":949,"x_min":32,"x_max":865,"o":"m 619 1167 l 794 1124 q 694 942 782 1011 q 474 872 607 872 q 253 942 340 872 q 153 1124 165 1011 l 328 1167 q 330 1151 328 1161 q 342 1117 332 1142 q 366 1073 351 1092 q 409 1039 381 1054 q 474 1024 438 1024 q 538 1038 510 1024 q 581 1074 567 1053 q 606 1116 596 1094 q 617 1153 615 1138 l 619 1167 m 132 88 q 82 143 132 88 q 32 356 32 197 q 132 624 32 514 q 386 733 232 733 q 619 644 528 733 l 619 713 l 865 713 l 865 0 l 622 0 l 622 81 l 619 81 q 386 -21 528 -21 q 132 88 232 -21 m 341 476 q 317 453 341 476 q 293 356 293 429 q 339 235 293 282 q 460 189 385 189 q 578 236 532 189 q 625 356 625 283 q 577 476 625 429 q 460 524 529 524 q 341 476 389 524 z "},"Ą":{"ha":1089,"x_min":-39,"x_max":1128,"o":"m 763 -219 q 874 0 763 -133 l 847 0 l 763 229 l 326 229 l 242 0 l -39 0 l 424 1146 l 665 1146 l 1128 0 l 988 0 q 965 -30 978 -11 q 928 -100 951 -49 q 906 -194 906 -151 q 922 -234 906 -219 q 957 -249 938 -249 q 994 -238 976 -249 q 1019 -217 1011 -228 l 1028 -207 l 1128 -282 q 1120 -293 1125 -286 q 1098 -317 1115 -300 q 1060 -347 1081 -333 q 1006 -371 1039 -360 q 938 -382 974 -382 q 817 -342 872 -382 q 763 -219 763 -301 m 674 458 l 546 792 l 543 792 l 415 458 l 674 458 z "},"ą":{"ha":949,"x_min":32,"x_max":876,"o":"m 511 -219 q 622 0 511 -129 l 622 81 l 619 81 q 386 -21 528 -21 q 132 88 232 -21 q 32 356 32 197 q 132 624 32 514 q 386 733 232 733 q 619 644 528 733 l 619 713 l 865 713 l 865 0 l 736 0 q 713 -30 726 -11 q 677 -100 700 -49 q 654 -194 654 -151 q 670 -234 654 -219 q 706 -249 686 -249 q 742 -238 725 -249 q 768 -217 760 -228 l 776 -207 l 876 -282 q 869 -293 874 -286 q 847 -317 864 -300 q 808 -347 829 -333 q 755 -371 788 -360 q 686 -382 722 -382 q 566 -342 621 -382 q 511 -219 511 -301 m 341 476 q 317 453 341 476 q 293 356 293 429 q 339 235 293 282 q 460 189 385 189 q 578 236 532 189 q 625 356 625 283 q 577 476 625 429 q 460 524 529 524 q 341 476 389 524 z "},"Ć":{"ha":1046,"x_min":32,"x_max":1029,"o":"m 376 1356 l 658 1600 l 785 1440 l 454 1249 l 376 1356 m 693 236 q 413 340 511 236 q 315 574 315 443 q 338 691 315 633 q 405 799 361 749 q 524 879 449 849 q 693 910 599 910 q 809 892 753 910 q 892 857 865 875 l 918 839 l 1029 1061 q 1014 1072 1024 1065 q 969 1098 1004 1079 q 893 1131 933 1117 q 788 1156 853 1144 q 653 1167 722 1167 q 419 1119 533 1167 q 220 993 306 1072 q 83 803 135 914 q 32 571 32 692 q 119 274 32 411 q 350 58 207 136 q 653 -21 493 -21 q 858 6 764 -21 q 990 58 951 32 l 1029 85 l 918 307 q 889 287 908 299 q 811 256 869 275 q 693 236 753 236 z "},"ć":{"ha":682,"x_min":32,"x_max":674,"o":"m 265 922 l 547 1167 l 674 1007 l 343 815 l 265 922 m 463 532 q 343 481 393 532 q 293 357 293 429 q 343 232 293 283 q 463 181 393 181 q 526 189 496 181 q 569 206 556 197 l 582 214 l 665 43 q 638 26 656 36 q 559 -3 621 15 q 426 -21 497 -21 q 151 90 269 -21 q 32 354 32 200 q 151 622 32 510 q 426 733 269 733 q 557 717 497 733 q 642 683 617 700 l 665 667 l 582 499 q 463 532 536 532 z "},"Č":{"ha":1046,"x_min":32,"x_max":1029,"o":"m 400 1600 l 613 1444 l 825 1600 l 919 1474 l 613 1249 l 306 1474 l 400 1600 m 693 236 q 413 340 511 236 q 315 574 315 443 q 338 691 315 633 q 405 799 361 749 q 524 879 449 849 q 693 910 599 910 q 809 892 753 910 q 892 857 865 875 l 918 839 l 1029 1061 q 1014 1072 1024 1065 q 969 1098 1004 1079 q 893 1131 933 1117 q 788 1156 853 1144 q 653 1167 722 1167 q 419 1119 533 1167 q 220 993 306 1072 q 83 803 135 914 q 32 571 32 692 q 119 274 32 411 q 350 58 207 136 q 653 -21 493 -21 q 858 6 764 -21 q 990 58 951 32 l 1029 85 l 918 307 q 889 287 908 299 q 811 256 869 275 q 693 236 753 236 z "},"č":{"ha":682,"x_min":32,"x_max":665,"o":"m 144 1167 l 357 1011 l 569 1167 l 664 1040 l 357 815 l 50 1040 l 144 1167 m 463 532 q 343 481 393 532 q 293 357 293 429 q 343 232 293 283 q 463 181 393 181 q 526 189 496 181 q 569 206 556 197 l 582 214 l 665 43 q 638 26 656 36 q 559 -3 621 15 q 426 -21 497 -21 q 151 90 269 -21 q 32 354 32 200 q 151 622 32 510 q 426 733 269 733 q 557 717 497 733 q 642 683 617 700 l 665 667 l 582 499 q 463 532 536 532 z "},"Ď":{"ha":1025,"x_min":83,"x_max":993,"o":"m 288 1600 l 500 1444 l 713 1600 l 807 1474 l 500 1249 l 193 1474 l 288 1600 m 83 1146 l 415 1146 q 824 983 654 1146 q 993 574 993 819 q 824 163 993 326 q 415 0 656 0 l 83 0 l 83 1146 m 344 233 l 385 233 q 619 330 528 233 q 711 572 710 426 q 620 815 711 718 q 385 913 529 913 l 344 913 l 344 233 z "},"ď":{"ha":949,"x_min":32,"x_max":1175,"o":"m 132 88 q 82 143 132 88 q 32 356 32 197 q 132 624 32 514 q 386 733 232 733 q 619 644 528 733 l 619 1194 l 865 1194 l 865 0 l 622 0 l 622 81 l 619 81 q 386 -21 528 -21 q 132 88 232 -21 m 1050 1144 q 1139 1108 1103 1144 q 1175 1019 1175 1072 q 994 713 1175 861 l 939 756 q 1021 908 1004 818 q 954 949 981 918 q 928 1019 928 979 q 964 1108 928 1071 q 1050 1144 1000 1144 m 341 476 q 317 453 341 476 q 293 356 293 429 q 339 235 293 282 q 460 189 385 189 q 578 236 532 189 q 625 356 625 283 q 577 476 625 429 q 460 524 529 524 q 341 476 389 524 z "},"Đ":{"ha":1078,"x_min":22,"x_max":1046,"o":"m 136 679 l 136 1146 l 468 1146 q 876 983 707 1146 q 1046 574 1046 819 q 877 163 1046 326 q 468 0 708 0 l 136 0 l 136 467 l 22 467 l 22 679 l 136 679 m 397 679 l 549 679 l 549 467 l 397 467 l 397 233 l 438 233 q 672 330 581 233 q 764 572 763 426 q 673 815 764 718 q 438 913 582 913 l 397 913 l 397 679 z "},"đ":{"ha":949,"x_min":32,"x_max":949,"o":"m 446 1031 l 619 1031 l 619 1194 l 865 1194 l 865 1031 l 949 1031 l 949 872 l 865 872 l 865 0 l 622 0 l 622 81 l 619 81 q 386 -21 528 -21 q 132 88 232 -21 q 32 356 32 197 q 132 624 32 514 q 386 733 232 733 q 619 644 528 733 l 619 872 l 446 872 l 446 1031 m 341 476 q 317 453 341 476 q 293 356 293 429 q 339 235 293 282 q 460 189 385 189 q 578 236 532 189 q 625 356 625 283 q 577 476 625 429 q 460 524 529 524 q 341 476 389 524 z "},"Ē":{"ha":806,"x_min":83,"x_max":739,"o":"m 119 1481 l 686 1481 l 686 1314 l 119 1314 l 119 1481 m 739 1146 l 739 917 l 344 917 l 344 689 l 722 689 l 722 460 l 344 460 l 344 229 l 739 229 l 739 0 l 83 0 l 83 1146 l 739 1146 z "},"ē":{"ha":838,"x_min":32,"x_max":806,"o":"m 135 1047 l 701 1047 l 701 881 l 135 881 l 135 1047 m 804 322 l 288 322 q 336 211 288 247 q 442 175 385 175 q 536 191 501 175 q 615 254 571 207 l 793 165 q 424 -21 682 -21 q 147 90 263 -21 q 32 356 32 200 q 147 622 32 511 q 424 733 263 733 q 699 635 593 733 q 806 356 806 538 q 804 322 806 331 m 294 458 l 565 458 q 522 544 557 514 q 431 574 486 574 q 333 542 369 574 q 294 458 297 510 z "},"Ė":{"ha":806,"x_min":83,"x_max":739,"o":"m 313 1494 q 331 1513 313 1494 q 403 1532 350 1532 q 493 1494 456 1532 q 531 1404 531 1457 q 493 1314 531 1351 q 403 1276 456 1276 q 313 1314 350 1276 q 275 1404 275 1351 q 313 1494 275 1457 m 739 1146 l 739 917 l 344 917 l 344 689 l 722 689 l 722 460 l 344 460 l 344 229 l 739 229 l 739 0 l 83 0 l 83 1146 l 739 1146 z "},"ė":{"ha":838,"x_min":32,"x_max":806,"o":"m 328 1061 q 347 1080 328 1061 q 418 1099 365 1099 q 508 1061 471 1099 q 546 971 546 1024 q 508 881 546 918 q 418 843 471 843 q 328 881 365 843 q 290 971 290 918 q 328 1061 290 1024 m 804 322 l 288 322 q 336 211 288 247 q 442 175 385 175 q 536 191 501 175 q 615 254 571 207 l 793 165 q 424 -21 682 -21 q 147 90 263 -21 q 32 356 32 200 q 147 622 32 511 q 424 733 263 733 q 699 635 593 733 q 806 356 806 538 q 804 322 806 331 m 294 458 l 565 458 q 522 544 557 514 q 431 574 486 574 q 333 542 369 574 q 294 458 297 510 z "},"Ę":{"ha":806,"x_min":83,"x_max":744,"o":"m 739 1146 l 739 917 l 344 917 l 344 689 l 722 689 l 722 460 l 344 460 l 344 229 l 739 229 l 739 0 l 604 0 q 581 -30 594 -11 q 545 -100 568 -49 q 522 -194 522 -151 q 538 -234 522 -219 q 574 -249 554 -249 q 610 -238 593 -249 q 636 -217 628 -228 l 644 -207 l 744 -282 q 737 -293 742 -286 q 715 -317 732 -300 q 676 -347 697 -333 q 623 -371 656 -360 q 554 -382 590 -382 q 434 -342 489 -382 q 379 -219 379 -301 q 490 0 379 -133 l 83 0 l 83 1146 l 739 1146 z "},"ę":{"ha":838,"x_min":32,"x_max":806,"o":"m 804 322 l 288 322 q 336 211 288 247 q 442 175 385 175 q 536 191 501 175 q 615 254 571 207 l 793 165 q 581 0 718 42 q 558 -30 571 -11 q 522 -100 544 -49 q 499 -194 499 -151 q 515 -234 499 -219 q 550 -249 531 -249 q 587 -238 569 -249 q 613 -217 604 -228 l 621 -207 l 721 -282 q 713 -293 718 -286 q 691 -317 708 -300 q 653 -347 674 -333 q 599 -371 632 -360 q 531 -382 567 -382 q 410 -342 465 -382 q 356 -219 356 -301 q 450 -19 356 -139 q 437 -20 446 -19 q 424 -21 428 -21 q 147 90 263 -21 q 32 356 32 200 q 147 622 32 511 q 424 733 263 733 q 699 635 593 733 q 806 356 806 538 q 804 322 806 331 m 294 458 l 565 458 q 522 544 557 514 q 431 574 486 574 q 333 542 369 574 q 294 458 297 510 z "},"Ě":{"ha":806,"x_min":83,"x_max":739,"o":"m 190 1600 l 403 1444 l 615 1600 l 710 1474 l 403 1249 l 96 1474 l 190 1600 m 739 1146 l 739 917 l 344 917 l 344 689 l 722 689 l 722 460 l 344 460 l 344 229 l 739 229 l 739 0 l 83 0 l 83 1146 l 739 1146 z "},"ě":{"ha":838,"x_min":32,"x_max":806,"o":"m 206 1167 l 418 1011 l 631 1167 l 725 1040 l 418 815 l 111 1040 l 206 1167 m 804 322 l 288 322 q 336 211 288 247 q 442 175 385 175 q 536 191 501 175 q 615 254 571 207 l 793 165 q 424 -21 682 -21 q 147 90 263 -21 q 32 356 32 200 q 147 622 32 511 q 424 733 263 733 q 699 635 593 733 q 806 356 806 538 q 804 322 806 331 m 294 458 l 565 458 q 522 544 557 514 q 431 574 486 574 q 333 542 369 574 q 294 458 297 510 z "},"Ģ":{"ha":1151,"x_min":32,"x_max":1119,"o":"m 1119 642 l 1119 393 q 925 84 1075 189 q 590 -21 775 -21 q 195 153 358 -21 q 32 572 32 326 q 192 994 32 822 q 590 1167 351 1167 q 1032 971 869 1167 l 861 783 q 606 931 769 931 q 399 826 485 931 q 314 572 314 721 q 399 323 314 426 q 606 219 485 219 q 780 280 706 219 q 854 440 854 340 l 590 440 l 590 642 l 1119 642 m 574 -56 q 488 -92 524 -56 q 451 -181 451 -129 q 478 -251 451 -221 q 544 -292 504 -282 q 517 -370 538 -332 q 479 -426 496 -408 l 463 -444 l 518 -487 q 699 -181 699 -339 q 662 -92 699 -128 q 574 -56 625 -56 z "},"ģ":{"ha":949,"x_min":32,"x_max":865,"o":"m 475 843 q 386 880 422 843 q 350 968 350 917 q 531 1275 350 1126 l 586 1232 q 504 1079 521 1169 q 571 1039 544 1069 q 597 968 597 1008 q 561 880 597 917 q 475 843 525 843 m 51 -175 l 253 -76 q 446 -168 308 -168 q 565 -127 510 -168 q 619 -1 619 -86 l 619 51 q 386 -21 554 -21 q 132 88 232 -21 q 32 356 32 197 q 132 624 32 514 q 386 733 232 733 q 615 649 524 733 l 619 649 l 619 713 l 865 713 l 865 -19 q 750 -287 865 -193 q 446 -382 635 -382 q 51 -175 140 -382 m 341 476 q 317 453 341 476 q 293 356 293 429 q 339 235 293 282 q 460 189 385 189 q 578 236 532 189 q 625 356 625 283 q 577 476 625 429 q 460 524 529 524 q 341 476 389 524 z "},"Ī":{"ha":428,"x_min":-69,"x_max":497,"o":"m -69 1481 l 497 1481 l 497 1314 l -69 1314 l -69 1481 m 344 1146 l 344 0 l 83 0 l 83 1146 l 344 1146 z "},"ī":{"ha":413,"x_min":-76,"x_max":490,"o":"m -76 1047 l 490 1047 l 490 881 l -76 881 l -76 1047 m 83 713 l 83 0 l 329 0 l 329 713 l 83 713 z "},"Į":{"ha":428,"x_min":46,"x_max":411,"o":"m 344 1146 l 344 0 l 271 0 q 248 -30 261 -11 q 212 -100 235 -49 q 189 -194 189 -151 q 205 -234 189 -219 q 240 -249 221 -249 q 277 -238 260 -249 q 303 -217 294 -228 l 311 -207 l 411 -282 q 403 -293 408 -286 q 381 -317 399 -300 q 343 -347 364 -333 q 290 -371 322 -360 q 221 -382 257 -382 q 101 -342 156 -382 q 46 -219 46 -301 q 157 0 46 -133 l 83 0 l 83 1146 l 344 1146 z "},"į":{"ha":413,"x_min":40,"x_max":406,"o":"m 107 1110 q 128 1131 107 1110 q 210 1153 150 1153 q 313 1110 269 1153 q 356 1007 356 1067 q 313 904 356 947 q 210 861 269 861 q 107 904 150 861 q 64 1007 64 947 q 107 1110 64 1067 m 40 -219 q 95 -342 40 -301 q 215 -382 150 -382 q 319 -357 272 -382 q 386 -307 367 -332 l 406 -282 l 306 -207 q 235 -249 278 -249 q 199 -234 215 -249 q 183 -194 183 -219 q 204 -103 183 -151 q 244 -28 225 -54 l 265 0 l 329 0 l 329 713 l 83 713 l 83 0 l 151 0 q 40 -219 40 -129 z "},"ı":{"ha":374,"x_min":64,"x_max":310,"o":"m 64 0 l 64 713 l 310 713 l 310 0 l 64 0 z "},"Ķ":{"ha":1093,"x_min":83,"x_max":1126,"o":"m 1126 0 l 767 0 l 344 486 l 344 0 l 83 0 l 83 1146 l 344 1146 l 344 678 l 738 1146 l 1054 1146 l 593 603 l 1126 0 m 544 -56 q 458 -92 494 -56 q 422 -181 422 -129 q 449 -251 422 -221 q 515 -292 475 -282 q 488 -370 508 -332 q 450 -426 467 -408 l 433 -444 l 489 -487 q 669 -181 669 -339 q 633 -92 669 -128 q 544 -56 597 -56 z "},"ķ":{"ha":897,"x_min":83,"x_max":931,"o":"m 897 713 l 558 372 l 931 0 l 614 0 l 329 285 l 329 0 l 83 0 l 83 1194 l 329 1194 l 329 464 l 578 713 l 897 713 m 447 -56 q 536 -92 500 -56 q 572 -181 572 -128 q 392 -487 572 -339 l 336 -444 q 418 -292 401 -382 q 351 -251 378 -282 q 325 -181 325 -221 q 361 -92 325 -129 q 447 -56 397 -56 z "},"Ĺ":{"ha":785,"x_min":83,"x_max":739,"o":"m 189 1356 l 471 1600 l 597 1440 l 267 1249 l 189 1356 m 344 1146 l 344 229 l 739 229 l 739 0 l 83 0 l 83 1146 l 344 1146 z "},"ĺ":{"ha":413,"x_min":83,"x_max":492,"o":"m 83 1404 l 365 1649 l 492 1489 l 161 1297 l 83 1404 m 83 1194 l 83 0 l 329 0 l 329 1194 l 83 1194 z "},"Ļ":{"ha":785,"x_min":83,"x_max":739,"o":"m 344 1146 l 344 229 l 739 229 l 739 0 l 83 0 l 83 1146 l 344 1146 m 390 -56 q 304 -92 340 -56 q 268 -181 268 -129 q 294 -251 268 -221 q 361 -292 321 -282 q 333 -370 354 -332 q 296 -426 313 -408 l 279 -444 l 335 -487 q 515 -181 515 -339 q 478 -92 515 -128 q 390 -56 442 -56 z "},"ļ":{"ha":413,"x_min":82,"x_max":329,"o":"m 83 0 l 83 1194 l 329 1194 l 329 0 l 83 0 m 204 -56 q 292 -92 256 -56 q 329 -181 329 -128 q 149 -487 329 -339 l 93 -444 q 175 -292 158 -382 q 108 -251 135 -282 q 82 -181 82 -221 q 118 -92 82 -129 q 204 -56 154 -56 z "},"Ľ":{"ha":785,"x_min":83,"x_max":739,"o":"m 344 1146 l 344 229 l 739 229 l 739 0 l 83 0 l 83 1146 l 344 1146 m 579 1144 q 493 1108 529 1144 q 457 1019 457 1071 q 483 949 457 979 q 550 908 510 918 q 522 830 543 868 q 485 774 501 792 l 468 756 l 524 713 q 704 1019 704 861 q 667 1108 704 1072 q 579 1144 631 1144 z "},"ľ":{"ha":413,"x_min":83,"x_max":639,"o":"m 83 0 l 83 1194 l 329 1194 l 329 0 l 83 0 m 514 1144 q 603 1108 567 1144 q 639 1019 639 1072 q 458 713 639 861 l 403 756 q 485 908 468 818 q 418 949 444 918 q 392 1019 392 979 q 428 1108 392 1071 q 514 1144 464 1144 z "},"Ł":{"ha":789,"x_min":28,"x_max":789,"o":"m 28 347 l 28 560 l 133 642 l 133 1146 l 394 1146 l 394 847 l 540 963 l 540 750 l 394 635 l 394 229 l 789 229 l 789 0 l 133 0 l 133 429 l 28 347 z "},"ł":{"ha":513,"x_min":28,"x_max":485,"o":"m 133 0 l 133 431 l 28 347 l 28 560 l 133 643 l 133 1194 l 379 1194 l 379 836 l 485 919 l 485 707 l 379 624 l 379 0 l 133 0 z "},"Ń":{"ha":1147,"x_min":83,"x_max":1064,"o":"m 369 1356 l 651 1600 l 778 1440 l 447 1249 l 369 1356 m 344 711 l 344 0 l 83 0 l 83 1146 l 344 1146 l 800 435 l 803 435 l 803 1146 l 1064 1146 l 1064 0 l 803 0 l 347 711 l 344 711 z "},"ń":{"ha":918,"x_min":83,"x_max":849,"o":"m 376 922 l 658 1167 l 785 1007 l 454 815 l 376 922 m 329 0 l 329 403 q 374 499 329 456 q 475 542 419 542 q 567 500 532 542 q 603 403 603 458 l 603 0 l 849 0 l 849 469 q 819 594 849 540 q 741 676 789 647 q 641 719 693 706 q 536 733 589 733 q 332 638 428 733 l 329 638 l 329 713 l 83 713 l 83 0 l 329 0 z "},"Ņ":{"ha":1147,"x_min":83,"x_max":1064,"o":"m 344 711 l 344 0 l 83 0 l 83 1146 l 344 1146 l 800 435 l 803 435 l 803 1146 l 1064 1146 l 1064 0 l 803 0 l 347 711 l 344 711 m 572 -56 q 486 -92 522 -56 q 450 -181 450 -129 q 476 -251 450 -221 q 543 -292 503 -282 q 515 -370 536 -332 q 478 -426 494 -408 l 461 -444 l 517 -487 q 697 -181 697 -339 q 661 -92 697 -128 q 572 -56 625 -56 z "},"ņ":{"ha":918,"x_min":83,"x_max":849,"o":"m 83 0 l 83 713 l 329 713 l 329 638 l 332 638 q 536 733 428 733 q 641 719 589 733 q 741 676 693 706 q 819 594 789 647 q 849 469 849 540 l 849 0 l 603 0 l 603 403 q 567 500 603 458 q 475 542 532 542 q 374 499 419 542 q 329 403 329 456 l 329 0 l 83 0 m 457 -56 q 545 -92 508 -56 q 582 -181 582 -128 q 401 -487 582 -339 l 346 -444 q 428 -292 411 -382 q 361 -251 388 -282 q 335 -181 335 -221 q 371 -92 335 -129 q 457 -56 407 -56 z "},"Ň":{"ha":1147,"x_min":83,"x_max":1064,"o":"m 361 1600 l 574 1444 l 786 1600 l 881 1474 l 574 1249 l 267 1474 l 361 1600 m 344 711 l 344 0 l 83 0 l 83 1146 l 344 1146 l 800 435 l 803 435 l 803 1146 l 1064 1146 l 1064 0 l 803 0 l 347 711 l 344 711 z "},"ň":{"ha":918,"x_min":83,"x_max":849,"o":"m 246 1167 l 458 1011 l 671 1167 l 765 1040 l 458 815 l 151 1040 l 246 1167 m 329 0 l 329 403 q 374 499 329 456 q 475 542 419 542 q 567 500 532 542 q 603 403 603 458 l 603 0 l 849 0 l 849 469 q 819 594 849 540 q 741 676 789 647 q 641 719 693 706 q 536 733 589 733 q 332 638 428 733 l 329 638 l 329 713 l 83 713 l 83 0 l 329 0 z "},"Ō":{"ha":1218,"x_min":32,"x_max":1186,"o":"m 325 1481 l 892 1481 l 892 1314 l 325 1314 l 325 1481 m 32 574 q 201 994 32 822 q 610 1167 371 1167 q 1018 995 850 1167 q 1186 574 1186 824 q 1021 151 1186 322 q 610 -21 856 -21 q 195 149 358 -21 q 32 574 32 319 m 314 574 q 342 409 314 483 q 439 283 369 335 q 610 232 508 232 q 830 332 756 232 q 904 574 904 432 q 828 815 904 714 q 610 915 753 915 q 391 815 468 915 q 314 574 314 714 z "},"ō":{"ha":918,"x_min":32,"x_max":886,"o":"m 175 1047 l 742 1047 l 742 881 l 175 881 l 175 1047 m 156 627 q 94 574 156 627 q 32 356 32 521 q 151 85 32 190 q 461 -21 269 -21 q 766 85 646 -21 q 886 356 886 192 q 763 626 886 519 q 461 733 640 733 q 156 627 279 733 m 339 235 q 316 259 339 235 q 293 356 293 282 q 341 476 293 429 q 460 524 389 524 q 577 476 529 524 q 625 356 625 429 q 578 236 625 283 q 460 189 532 189 q 339 235 385 189 z "},"Ő":{"ha":1218,"x_min":32,"x_max":1186,"o":"m 321 1356 l 561 1628 l 675 1483 l 399 1249 l 321 1356 m 614 1356 l 854 1628 l 968 1483 l 692 1249 l 614 1356 m 32 574 q 201 994 32 822 q 610 1167 371 1167 q 1018 995 850 1167 q 1186 574 1186 824 q 1021 151 1186 322 q 610 -21 856 -21 q 195 149 358 -21 q 32 574 32 319 m 314 574 q 342 409 314 483 q 439 283 369 335 q 610 232 508 232 q 830 332 756 232 q 904 574 904 432 q 828 815 904 714 q 610 915 753 915 q 391 815 468 915 q 314 574 314 714 z "},"ő":{"ha":918,"x_min":32,"x_max":886,"o":"m 171 922 l 411 1194 l 525 1050 l 249 815 l 171 922 m 464 922 l 704 1194 l 818 1050 l 542 815 l 464 922 m 156 627 q 94 574 156 627 q 32 356 32 521 q 151 85 32 190 q 461 -21 269 -21 q 766 85 646 -21 q 886 356 886 192 q 763 626 886 519 q 461 733 640 733 q 156 627 279 733 m 339 235 q 316 259 339 235 q 293 356 293 282 q 341 476 293 429 q 460 524 389 524 q 577 476 529 524 q 625 356 625 429 q 578 236 625 283 q 460 189 532 189 q 339 235 385 189 z "},"Œ":{"ha":1403,"x_min":32,"x_max":1336,"o":"m 942 917 l 942 689 l 1319 689 l 1319 460 l 942 460 l 942 229 l 1336 229 l 1336 0 l 610 0 q 201 163 369 0 q 32 572 32 325 q 201 983 32 819 q 610 1146 369 1146 l 1336 1146 l 1336 917 l 942 917 m 681 913 l 640 913 q 405 815 496 913 q 314 574 314 718 q 405 331 314 428 q 640 233 496 233 l 681 233 l 681 913 z "},"œ":{"ha":1418,"x_min":32,"x_max":1386,"o":"m 1385 322 l 868 322 q 917 211 868 247 q 1022 175 965 175 q 1117 191 1082 175 q 1196 254 1151 207 l 1374 165 q 1004 -21 1263 -21 q 860 8 931 -21 q 757 64 790 36 l 724 92 q 713 80 719 88 q 679 53 706 72 q 624 19 653 33 q 549 -8 596 4 q 453 -21 503 -21 q 147 84 263 -21 q 32 356 32 189 q 151 627 32 521 q 453 733 271 733 q 546 722 500 733 q 622 693 592 710 q 676 660 653 676 q 711 631 700 643 l 722 619 q 735 631 726 624 q 770 659 743 639 q 828 694 797 679 q 906 721 858 708 q 1004 733 954 733 q 1280 635 1174 733 q 1386 356 1386 538 q 1385 322 1386 331 m 875 458 l 1146 458 q 1102 544 1138 514 q 1011 574 1067 574 q 914 542 950 574 q 875 458 878 510 m 337 476 q 313 453 337 476 q 289 356 289 429 q 335 235 289 282 q 456 189 381 189 q 574 236 528 189 q 621 356 621 283 q 573 476 621 429 q 456 524 525 524 q 337 476 385 524 z "},"Ŕ":{"ha":994,"x_min":83,"x_max":1026,"o":"m 293 1356 l 575 1600 l 701 1440 l 371 1249 l 293 1356 m 83 1146 l 493 1146 q 763 1058 658 1146 q 867 806 867 969 q 803 594 867 679 q 632 474 740 508 l 1026 0 l 694 0 l 344 453 l 344 0 l 83 0 l 83 1146 m 344 638 l 375 638 q 436 639 411 638 q 493 649 461 640 q 544 672 525 657 q 578 717 564 688 q 592 788 592 746 q 578 858 592 829 q 544 903 564 888 q 493 926 525 918 q 436 936 461 935 q 375 938 411 938 l 344 938 l 344 638 z "},"ŕ":{"ha":692,"x_min":83,"x_max":706,"o":"m 208 922 l 490 1167 l 617 1007 l 286 815 l 208 922 m 329 0 l 329 375 q 335 406 329 386 q 353 453 340 425 q 399 500 367 481 q 475 519 431 519 q 543 510 511 519 q 589 490 575 500 l 603 481 l 706 689 q 550 733 642 733 q 474 721 511 733 q 413 690 438 708 q 369 653 388 672 q 342 622 350 635 l 332 610 l 329 610 l 329 713 l 83 713 l 83 0 l 329 0 z "},"Ŗ":{"ha":994,"x_min":83,"x_max":1026,"o":"m 83 1146 l 493 1146 q 763 1058 658 1146 q 867 806 867 969 q 803 594 867 679 q 632 474 740 508 l 1026 0 l 694 0 l 344 453 l 344 0 l 83 0 l 83 1146 m 344 638 l 375 638 q 436 639 411 638 q 493 649 461 640 q 544 672 525 657 q 578 717 564 688 q 592 788 592 746 q 578 858 592 829 q 544 903 564 888 q 493 926 525 918 q 436 936 461 935 q 375 938 411 938 l 344 938 l 344 638 m 496 -56 q 410 -92 446 -56 q 374 -181 374 -129 q 400 -251 374 -221 q 467 -292 426 -282 q 439 -370 460 -332 q 401 -426 418 -408 l 385 -444 l 440 -487 q 621 -181 621 -339 q 584 -92 621 -128 q 496 -56 547 -56 z "},"ŗ":{"ha":692,"x_min":83,"x_max":706,"o":"m 83 0 l 83 713 l 329 713 l 329 610 l 332 610 q 341 624 335 615 q 368 653 347 632 q 413 690 389 674 q 474 720 436 707 q 550 733 511 733 q 629 722 590 733 q 686 700 668 711 l 706 689 l 603 481 q 475 519 557 519 q 399 500 431 519 q 353 453 367 481 q 335 406 340 425 q 329 375 329 386 l 329 0 l 83 0 m 206 -56 q 294 -92 258 -56 q 331 -181 331 -128 q 150 -487 331 -339 l 94 -444 q 176 -292 160 -382 q 110 -251 136 -282 q 83 -181 83 -221 q 119 -92 83 -129 q 206 -56 156 -56 z "},"Ř":{"ha":994,"x_min":83,"x_max":1026,"o":"m 238 1600 l 450 1444 l 663 1600 l 757 1474 l 450 1249 l 143 1474 l 238 1600 m 83 1146 l 493 1146 q 763 1058 658 1146 q 867 806 867 969 q 803 594 867 679 q 632 474 740 508 l 1026 0 l 694 0 l 344 453 l 344 0 l 83 0 l 83 1146 m 344 638 l 375 638 q 436 639 411 638 q 493 649 461 640 q 544 672 525 657 q 578 717 564 688 q 592 788 592 746 q 578 858 592 829 q 544 903 564 888 q 493 926 525 918 q 436 936 461 935 q 375 938 411 938 l 344 938 l 344 638 z "},"ř":{"ha":692,"x_min":39,"x_max":706,"o":"m 133 1167 l 346 1011 l 558 1167 l 653 1040 l 346 815 l 39 1040 l 133 1167 m 329 0 l 329 375 q 335 406 329 386 q 353 453 340 425 q 399 500 367 481 q 475 519 431 519 q 543 510 511 519 q 589 490 575 500 l 603 481 l 706 689 q 550 733 642 733 q 474 721 511 733 q 413 690 438 708 q 369 653 388 672 q 342 622 350 635 l 332 610 l 329 610 l 329 713 l 83 713 l 83 0 l 329 0 z "},"Ś":{"ha":933,"x_min":32,"x_max":894,"o":"m 263 1356 l 544 1600 l 671 1440 l 340 1249 l 263 1356 m 506 1167 q 688 1140 599 1167 q 819 1086 776 1113 l 861 1058 l 756 850 q 721 872 743 858 q 638 907 699 885 q 524 929 576 929 q 423 901 458 929 q 388 826 388 874 q 404 783 388 803 q 461 740 421 763 q 532 703 501 717 q 626 661 563 689 q 816 533 738 614 q 894 349 894 451 q 859 176 894 250 q 762 61 824 103 q 625 -1 700 19 q 463 -21 550 -21 q 315 -6 388 -21 q 194 33 243 10 q 107 78 146 56 q 50 115 68 100 l 32 131 l 163 350 q 208 315 179 336 q 312 257 238 293 q 443 221 386 221 q 608 333 608 221 q 597 377 608 357 q 555 417 585 397 q 502 449 525 438 q 427 485 479 461 q 350 522 375 510 q 189 651 246 574 q 132 817 132 728 q 246 1069 132 971 q 506 1167 360 1167 z "},"ś":{"ha":683,"x_min":32,"x_max":644,"o":"m 193 922 l 475 1167 l 601 1007 l 271 815 l 193 922 m 393 733 q 514 719 454 733 q 603 692 574 706 l 632 678 l 551 517 q 393 561 468 561 q 334 552 351 561 q 317 518 317 543 q 318 507 317 513 q 324 497 319 501 q 331 488 328 492 q 343 481 335 485 q 356 474 351 476 q 372 468 361 472 q 389 462 383 464 q 408 456 394 460 q 428 450 421 451 q 503 422 471 438 q 570 381 535 407 q 625 314 606 354 q 644 222 644 274 q 307 -21 644 -21 q 162 3 231 -21 q 63 50 93 26 l 32 75 l 132 243 q 161 220 143 233 q 226 184 179 207 q 308 161 274 161 q 385 213 385 161 q 365 249 385 236 q 299 279 346 263 q 226 310 253 296 q 121 388 160 344 q 82 504 82 432 q 166 673 82 613 q 393 733 250 733 z "},"Š":{"ha":933,"x_min":32,"x_max":894,"o":"m 254 1600 l 467 1444 l 679 1600 l 774 1474 l 467 1249 l 160 1474 l 254 1600 m 506 1167 q 688 1140 599 1167 q 819 1086 776 1113 l 861 1058 l 756 850 q 721 872 743 858 q 638 907 699 885 q 524 929 576 929 q 423 901 458 929 q 388 826 388 874 q 404 783 388 803 q 461 740 421 763 q 532 703 501 717 q 626 661 563 689 q 816 533 738 614 q 894 349 894 451 q 859 176 894 250 q 762 61 824 103 q 625 -1 700 19 q 463 -21 550 -21 q 315 -6 388 -21 q 194 33 243 10 q 107 78 146 56 q 50 115 68 100 l 32 131 l 163 350 q 208 315 179 336 q 312 257 238 293 q 443 221 386 221 q 608 333 608 221 q 597 377 608 357 q 555 417 585 397 q 502 449 525 438 q 427 485 479 461 q 350 522 375 510 q 189 651 246 574 q 132 817 132 728 q 246 1069 132 971 q 506 1167 360 1167 z "},"š":{"ha":683,"x_min":32,"x_max":649,"o":"m 129 1167 l 342 1011 l 554 1167 l 649 1040 l 342 815 l 35 1040 l 129 1167 m 393 733 q 514 719 454 733 q 603 692 574 706 l 632 678 l 551 517 q 393 561 468 561 q 334 552 351 561 q 317 518 317 543 q 318 507 317 513 q 324 497 319 501 q 331 488 328 492 q 343 481 335 485 q 356 474 351 476 q 372 468 361 472 q 389 462 383 464 q 408 456 394 460 q 428 450 421 451 q 503 422 471 438 q 570 381 535 407 q 625 314 606 354 q 644 222 644 274 q 307 -21 644 -21 q 162 3 231 -21 q 63 50 93 26 l 32 75 l 132 243 q 161 220 143 233 q 226 184 179 207 q 308 161 274 161 q 385 213 385 161 q 365 249 385 236 q 299 279 346 263 q 226 310 253 296 q 121 388 160 344 q 82 504 82 432 q 166 673 82 613 q 393 733 250 733 z "},"Ť":{"ha":828,"x_min":11,"x_max":817,"o":"m 201 1600 l 414 1444 l 626 1600 l 721 1474 l 414 1249 l 107 1474 l 201 1600 m 11 917 l 11 1146 l 817 1146 l 817 917 l 544 917 l 544 0 l 283 0 l 283 917 l 11 917 z "},"ť":{"ha":606,"x_min":22,"x_max":786,"o":"m 661 1144 q 750 1108 714 1144 q 786 1019 786 1072 q 606 713 786 861 l 550 756 q 632 908 615 818 q 565 949 592 918 q 539 1019 539 979 q 575 1108 539 1071 q 661 1144 611 1144 m 125 713 l 125 978 l 371 978 l 371 713 l 521 713 l 521 525 l 371 525 l 371 299 q 426 200 371 200 q 456 206 440 200 q 479 217 471 211 l 488 222 l 549 24 q 368 -21 469 -21 q 249 3 299 -21 q 173 69 199 28 q 136 155 147 110 q 125 251 125 200 l 125 525 l 22 525 l 22 713 l 125 713 z "},"Ū":{"ha":1033,"x_min":69,"x_max":964,"o":"m 233 1481 l 800 1481 l 800 1314 l 233 1314 l 233 1481 m 703 1146 l 703 483 q 659 290 703 344 q 517 236 615 236 q 374 290 418 236 q 331 483 331 344 l 331 1146 l 69 1146 l 69 407 q 183 88 69 196 q 517 -21 297 -21 q 850 88 736 -21 q 964 407 964 196 l 964 1146 l 703 1146 z "},"ū":{"ha":911,"x_min":69,"x_max":842,"o":"m 172 1047 l 739 1047 l 739 881 l 172 881 l 172 1047 m 69 713 l 69 314 q 162 58 69 136 q 456 -21 254 -21 q 749 58 657 -21 q 842 314 842 136 l 842 713 l 596 713 l 596 374 q 564 224 596 268 q 456 179 532 179 q 347 224 379 179 q 315 374 315 268 l 315 713 l 69 713 z "},"Ů":{"ha":1033,"x_min":69,"x_max":964,"o":"m 293 1451 q 358 1593 293 1538 q 517 1649 422 1649 q 676 1593 613 1649 q 740 1451 740 1538 q 678 1308 740 1364 q 517 1253 615 1253 q 355 1308 417 1253 q 293 1451 293 1364 m 432 1451 q 456 1388 432 1414 q 517 1363 479 1363 q 577 1388 553 1363 q 601 1451 601 1414 q 576 1513 601 1488 q 517 1538 551 1538 q 457 1512 482 1538 q 432 1451 432 1486 m 964 1146 l 964 407 q 850 88 964 196 q 517 -21 736 -21 q 183 88 297 -21 q 69 407 69 196 l 69 1146 l 331 1146 l 331 483 q 374 290 331 344 q 517 236 418 236 q 659 290 615 236 q 703 483 703 344 l 703 1146 l 964 1146 z "},"ů":{"ha":911,"x_min":69,"x_max":842,"o":"m 232 1018 q 297 1160 232 1104 q 456 1215 361 1215 q 615 1160 551 1215 q 679 1018 679 1104 q 617 875 679 931 q 456 819 554 819 q 294 875 356 819 q 232 1018 232 931 m 371 1018 q 394 955 371 981 q 456 929 418 929 q 516 955 492 929 q 540 1018 540 981 q 515 1079 540 1054 q 456 1104 490 1104 q 396 1078 421 1104 q 371 1018 371 1053 m 315 713 l 315 374 q 347 224 315 268 q 456 179 379 179 q 564 224 532 179 q 596 374 596 268 l 596 713 l 842 713 l 842 314 q 749 58 842 136 q 456 -21 657 -21 q 162 58 254 -21 q 69 314 69 136 l 69 713 l 315 713 z "},"Ű":{"ha":1033,"x_min":69,"x_max":964,"o":"m 229 1356 l 469 1628 l 583 1483 l 307 1249 l 229 1356 m 522 1356 l 763 1628 l 876 1483 l 600 1249 l 522 1356 m 703 1146 l 703 483 q 659 290 703 344 q 517 236 615 236 q 374 290 418 236 q 331 483 331 344 l 331 1146 l 69 1146 l 69 407 q 183 88 69 196 q 517 -21 297 -21 q 850 88 736 -21 q 964 407 964 196 l 964 1146 l 703 1146 z "},"ű":{"ha":911,"x_min":69,"x_max":842,"o":"m 168 922 l 408 1194 l 522 1050 l 246 815 l 168 922 m 461 922 l 701 1194 l 815 1050 l 539 815 l 461 922 m 69 713 l 69 314 q 162 58 69 136 q 456 -21 254 -21 q 749 58 657 -21 q 842 314 842 136 l 842 713 l 596 713 l 596 374 q 564 224 596 268 q 456 179 532 179 q 347 224 379 179 q 315 374 315 268 l 315 713 l 69 713 z "},"Ų":{"ha":1033,"x_min":69,"x_max":964,"o":"m 368 -219 q 464 -18 368 -139 q 69 407 69 7 l 69 1146 l 331 1146 l 331 483 q 374 290 331 344 q 517 236 418 236 q 659 290 615 236 q 703 483 703 344 l 703 1146 l 964 1146 l 964 407 q 866 104 964 211 q 579 -18 768 -3 q 511 -194 511 -110 q 527 -234 511 -219 q 563 -249 543 -249 q 599 -238 582 -249 q 625 -217 617 -228 l 633 -207 l 733 -282 q 726 -293 731 -286 q 703 -317 721 -300 q 665 -347 686 -333 q 612 -371 644 -360 q 543 -382 579 -382 q 423 -342 478 -382 q 368 -219 368 -301 z "},"ų":{"ha":911,"x_min":69,"x_max":842,"o":"m 307 -219 q 403 -19 307 -133 q 149 69 229 -10 q 69 314 69 149 l 69 713 l 315 713 l 315 374 q 347 224 315 268 q 456 179 379 179 q 564 224 532 179 q 596 374 596 268 l 596 713 l 842 713 l 842 314 q 764 71 842 150 q 517 -19 686 -8 q 450 -194 450 -114 q 466 -234 450 -219 q 501 -249 482 -249 q 538 -238 521 -249 q 564 -217 556 -228 l 572 -207 l 672 -282 q 665 -293 669 -286 q 642 -317 660 -300 q 604 -347 625 -333 q 551 -371 583 -360 q 482 -382 518 -382 q 362 -342 417 -382 q 307 -219 307 -301 z "},"Ÿ":{"ha":1022,"x_min":-42,"x_max":1064,"o":"m 256 1494 q 274 1513 256 1494 q 346 1532 293 1532 q 436 1494 399 1532 q 474 1404 474 1457 q 436 1314 474 1351 q 346 1276 399 1276 q 256 1314 293 1276 q 218 1404 218 1351 q 256 1494 218 1457 m 585 1494 q 603 1513 585 1494 q 675 1532 622 1532 q 765 1494 728 1532 q 803 1404 803 1457 q 765 1314 803 1351 q 675 1276 728 1276 q 585 1314 622 1276 q 547 1404 547 1351 q 585 1494 547 1457 m -42 1146 l 272 1146 l 511 779 l 750 1146 l 1064 1146 l 642 514 l 642 0 l 381 0 l 381 514 l -42 1146 z "},"Ź":{"ha":1068,"x_min":22,"x_max":1046,"o":"m 329 1356 l 611 1600 l 738 1440 l 407 1249 l 329 1356 m 1046 1146 l 478 229 l 1008 229 l 1008 0 l 22 0 l 589 917 l 103 917 l 103 1146 l 1046 1146 z "},"ź":{"ha":779,"x_min":7,"x_max":772,"o":"m 264 922 l 546 1167 l 672 1007 l 342 815 l 264 922 m 772 713 l 419 188 l 744 188 l 744 0 l 7 0 l 360 525 l 65 525 l 65 713 l 772 713 z "},"Ż":{"ha":1068,"x_min":22,"x_max":1046,"o":"m 443 1494 q 462 1513 443 1494 q 533 1532 481 1532 q 624 1494 586 1532 q 661 1404 661 1457 q 624 1314 661 1351 q 533 1276 586 1276 q 443 1314 481 1276 q 406 1404 406 1351 q 443 1494 406 1457 m 1046 1146 l 478 229 l 1008 229 l 1008 0 l 22 0 l 589 917 l 103 917 l 103 1146 l 1046 1146 z "},"ż":{"ha":779,"x_min":7,"x_max":772,"o":"m 299 1061 q 317 1080 299 1061 q 389 1099 336 1099 q 479 1061 442 1099 q 517 971 517 1024 q 479 881 517 918 q 389 843 442 843 q 299 881 336 843 q 261 971 261 918 q 299 1061 261 1024 m 772 713 l 419 188 l 744 188 l 744 0 l 7 0 l 360 525 l 65 525 l 65 713 l 772 713 z "},"Ž":{"ha":1068,"x_min":22,"x_max":1046,"o":"m 321 1600 l 533 1444 l 746 1600 l 840 1474 l 533 1249 l 226 1474 l 321 1600 m 1046 1146 l 478 229 l 1008 229 l 1008 0 l 22 0 l 589 917 l 103 917 l 103 1146 l 1046 1146 z "},"ž":{"ha":779,"x_min":7,"x_max":772,"o":"m 178 1167 l 390 1011 l 603 1167 l 697 1040 l 390 815 l 83 1040 l 178 1167 m 772 713 l 419 188 l 744 188 l 744 0 l 7 0 l 360 525 l 65 525 l 65 713 l 772 713 z "},"Ș":{"ha":933,"x_min":32,"x_max":894,"o":"m 506 1167 q 688 1140 599 1167 q 819 1086 776 1113 l 861 1058 l 756 850 q 721 872 743 858 q 638 907 699 885 q 524 929 576 929 q 423 901 458 929 q 388 826 388 874 q 404 783 388 803 q 461 740 421 763 q 532 703 501 717 q 626 661 563 689 q 816 533 738 614 q 894 349 894 451 q 859 176 894 250 q 762 61 824 103 q 625 -1 700 19 q 463 -21 550 -21 q 315 -6 388 -21 q 194 33 243 10 q 107 78 146 56 q 50 115 68 100 l 32 131 l 163 350 q 208 315 179 336 q 312 257 238 293 q 443 221 386 221 q 608 333 608 221 q 597 377 608 357 q 555 417 585 397 q 502 449 525 438 q 427 485 479 461 q 350 522 375 510 q 189 651 246 574 q 132 817 132 728 q 246 1069 132 971 q 506 1167 360 1167 m 465 -56 q 379 -92 415 -56 q 343 -181 343 -129 q 369 -251 343 -221 q 436 -292 396 -282 q 408 -370 429 -332 q 371 -426 388 -408 l 354 -444 l 410 -487 q 590 -181 590 -339 q 553 -92 590 -128 q 465 -56 517 -56 z "},"ș":{"ha":683,"x_min":32,"x_max":644,"o":"m 393 733 q 514 719 454 733 q 603 692 574 706 l 632 678 l 551 517 q 393 561 468 561 q 334 552 351 561 q 317 518 317 543 q 318 507 317 513 q 324 497 319 501 q 331 488 328 492 q 343 481 335 485 q 356 474 351 476 q 372 468 361 472 q 389 462 383 464 q 408 456 394 460 q 428 450 421 451 q 503 422 471 438 q 570 381 535 407 q 625 314 606 354 q 644 222 644 274 q 307 -21 644 -21 q 162 3 231 -21 q 63 50 93 26 l 32 75 l 132 243 q 161 220 143 233 q 226 184 179 207 q 308 161 274 161 q 385 213 385 161 q 365 249 385 236 q 299 279 346 263 q 226 310 253 296 q 121 388 160 344 q 82 504 82 432 q 166 673 82 613 q 393 733 250 733 m 340 -56 q 254 -92 290 -56 q 218 -181 218 -129 q 244 -251 218 -221 q 311 -292 271 -282 q 283 -370 304 -332 q 246 -426 263 -408 l 229 -444 l 285 -487 q 465 -181 465 -339 q 428 -92 465 -128 q 340 -56 392 -56 z "},"Ț":{"ha":828,"x_min":11,"x_max":817,"o":"m 11 917 l 11 1146 l 817 1146 l 817 917 l 544 917 l 544 0 l 283 0 l 283 917 l 11 917 m 413 -56 q 326 -92 363 -56 q 290 -181 290 -129 q 317 -251 290 -221 q 383 -292 343 -282 q 356 -370 376 -332 q 318 -426 335 -408 l 301 -444 l 357 -487 q 538 -181 538 -339 q 501 -92 538 -128 q 413 -56 464 -56 z "},"ț":{"ha":549,"x_min":22,"x_max":549,"o":"m 125 713 l 125 978 l 371 978 l 371 713 l 521 713 l 521 525 l 371 525 l 371 299 q 426 200 371 200 q 456 206 440 200 q 479 217 471 211 l 488 222 l 549 24 q 368 -21 469 -21 q 249 3 299 -21 q 173 69 199 28 q 136 155 147 110 q 125 251 125 200 l 125 525 l 22 525 l 22 713 l 125 713 m 272 -56 q 361 -92 325 -56 q 397 -181 397 -128 q 217 -487 397 -339 l 161 -444 q 243 -292 226 -382 q 176 -251 203 -282 q 150 -181 150 -221 q 186 -92 150 -129 q 272 -56 222 -56 z "},"ˆ":{"ha":808,"x_min":97,"x_max":711,"o":"m 97 942 l 404 1167 l 711 942 l 617 815 l 404 971 l 192 815 l 97 942 z "},"ˇ":{"ha":808,"x_min":97,"x_max":711,"o":"m 192 1167 l 404 1011 l 617 1167 l 711 1040 l 404 815 l 97 1040 l 192 1167 z "},"˘":{"ha":836,"x_min":97,"x_max":739,"o":"m 564 1167 l 739 1124 q 639 942 726 1011 q 418 872 551 872 q 197 942 285 872 q 97 1124 110 1011 l 272 1167 q 274 1151 272 1161 q 286 1117 276 1142 q 310 1073 296 1092 q 353 1039 325 1054 q 418 1024 382 1024 q 483 1038 454 1024 q 526 1074 511 1053 q 550 1116 540 1094 q 561 1153 560 1138 l 564 1167 z "},"˙":{"ha":450,"x_min":97,"x_max":353,"o":"m 135 1061 q 153 1080 135 1061 q 225 1099 172 1099 q 315 1061 278 1099 q 353 971 353 1024 q 315 881 353 918 q 225 843 278 843 q 135 881 172 843 q 97 971 97 918 q 135 1061 97 1024 z "},"˚":{"ha":642,"x_min":97,"x_max":544,"o":"m 97 1018 q 162 1160 97 1104 q 321 1215 226 1215 q 481 1160 417 1215 q 544 1018 544 1104 q 482 875 544 931 q 321 819 419 819 q 159 875 221 819 q 97 1018 97 931 m 236 1018 q 260 955 236 981 q 321 929 283 929 q 381 955 357 929 q 406 1018 406 981 q 381 1079 406 1054 q 321 1104 356 1104 q 261 1078 286 1104 q 236 1018 236 1053 z "},"˛":{"ha":560,"x_min":97,"x_max":463,"o":"m 97 -219 q 133 -107 97 -171 q 206 -3 169 -43 l 242 36 l 322 0 q 299 -30 313 -11 q 263 -100 286 -49 q 240 -194 240 -151 q 256 -234 240 -219 q 292 -249 272 -249 q 328 -238 311 -249 q 354 -217 346 -228 l 363 -207 l 463 -282 q 455 -293 460 -286 q 433 -317 450 -300 q 394 -347 415 -333 q 341 -371 374 -360 q 272 -382 308 -382 q 152 -342 207 -382 q 97 -219 97 -301 z "},"˜":{"ha":836,"x_min":97,"x_max":739,"o":"m 406 892 q 300 918 350 918 q 265 902 281 918 q 243 869 249 886 l 238 854 l 97 854 q 102 880 99 864 q 120 937 106 896 q 153 1010 135 978 q 208 1067 172 1042 q 286 1093 243 1093 q 346 1084 310 1093 q 406 1065 382 1075 l 431 1056 q 536 1029 486 1029 q 572 1045 556 1029 q 593 1078 588 1061 l 599 1093 l 739 1093 q 734 1067 738 1083 q 716 1010 731 1051 q 683 938 701 969 q 628 880 664 906 q 550 854 593 854 q 490 863 526 854 q 431 882 454 872 l 406 892 z "},"˝":{"ha":842,"x_min":133,"x_max":781,"o":"m 133 922 l 374 1194 l 488 1050 l 211 815 l 133 922 m 426 922 l 667 1194 l 781 1050 l 504 815 l 426 922 z "},"–":{"ha":750,"x_min":0,"x_max":750,"o":"m 0 508 l 750 508 l 750 296 l 0 296 l 0 508 z "},"—":{"ha":1500,"x_min":0,"x_max":1500,"o":"m 0 508 l 1500 508 l 1500 296 l 0 296 l 0 508 z "},"‘":{"ha":404,"x_min":32,"x_max":321,"o":"m 178 661 q 74 704 117 661 q 32 807 32 747 q 243 1167 32 990 l 308 1115 q 287 1092 300 1107 q 247 1031 274 1078 q 213 938 221 985 q 290 890 260 926 q 321 807 321 854 q 279 703 321 746 q 178 661 238 661 z "},"’":{"ha":404,"x_min":83,"x_max":372,"o":"m 125 1124 q 146 1145 125 1124 q 226 1167 167 1167 q 329 1124 286 1167 q 372 1021 372 1081 q 161 661 372 838 l 96 713 q 117 735 104 721 q 157 797 131 750 q 192 890 183 843 q 114 938 144 901 q 83 1021 83 974 q 125 1124 83 1082 z "},"‚":{"ha":404,"x_min":83,"x_max":372,"o":"m 125 255 q 146 276 125 255 q 226 297 167 297 q 329 254 286 297 q 372 151 372 211 q 161 -208 372 -32 l 96 -157 q 117 -134 104 -149 q 157 -73 131 -119 q 192 21 183 -26 q 114 68 144 32 q 83 151 83 104 q 125 255 83 213 z "},"“":{"ha":757,"x_min":32,"x_max":674,"o":"m 178 661 q 74 704 117 661 q 32 807 32 747 q 243 1167 32 990 l 308 1115 q 287 1092 300 1107 q 247 1031 274 1078 q 213 938 221 985 q 290 890 260 926 q 321 807 321 854 q 279 703 321 746 q 178 661 238 661 m 631 704 q 610 683 631 704 q 529 661 589 661 q 428 703 469 661 q 386 807 386 746 q 596 1167 386 994 l 661 1115 q 640 1092 653 1107 q 600 1031 626 1078 q 564 938 574 985 q 643 890 613 926 q 674 807 674 854 q 631 704 674 747 z "},"”":{"ha":757,"x_min":83,"x_max":725,"o":"m 126 1124 q 147 1145 126 1124 q 228 1167 168 1167 q 329 1124 288 1167 q 371 1021 371 1082 q 161 661 371 833 l 96 713 q 117 735 104 721 q 157 797 131 750 q 193 890 183 843 q 114 938 144 901 q 83 1021 83 974 q 126 1124 83 1081 m 478 1124 q 499 1145 478 1124 q 579 1167 519 1167 q 682 1124 639 1167 q 725 1021 725 1081 q 514 661 725 838 l 449 713 q 470 735 457 721 q 510 797 483 750 q 544 890 536 843 q 467 938 497 901 q 436 1021 436 974 q 478 1124 436 1082 z "},"„":{"ha":757,"x_min":83,"x_max":725,"o":"m 126 254 q 147 276 126 254 q 228 297 168 297 q 329 255 288 297 q 371 151 371 213 q 161 -208 371 -36 l 96 -157 q 117 -134 104 -149 q 157 -73 131 -119 q 193 21 183 -26 q 114 68 144 32 q 83 151 83 104 q 126 254 83 211 m 478 255 q 499 276 478 255 q 579 297 519 297 q 682 254 639 297 q 725 151 725 211 q 514 -208 725 -32 l 449 -157 q 470 -134 457 -149 q 510 -73 483 -119 q 544 21 536 -26 q 467 68 497 32 q 436 151 436 104 q 478 255 436 213 z "},"†":{"ha":753,"x_min":97,"x_max":656,"o":"m 97 903 l 269 903 l 269 1194 l 482 1194 l 482 903 l 656 903 l 656 714 l 482 714 l 482 0 l 269 0 l 269 714 l 97 714 l 97 903 z "},"‡":{"ha":753,"x_min":97,"x_max":656,"o":"m 97 508 l 269 508 l 269 686 l 97 686 l 97 875 l 269 875 l 269 1194 l 482 1194 l 482 875 l 656 875 l 656 686 l 482 686 l 482 508 l 656 508 l 656 319 l 482 319 l 482 0 l 269 0 l 269 319 l 97 319 l 97 508 z "},"•":{"ha":994,"x_min":225,"x_max":769,"o":"m 496 768 q 690 688 610 768 q 769 494 769 608 q 690 303 769 382 q 496 224 610 224 q 304 303 383 224 q 225 494 225 382 q 304 688 225 608 q 496 768 383 768 z "},"…":{"ha":1454,"x_min":83,"x_max":1371,"o":"m 242 297 q 355 251 308 297 q 401 138 401 204 q 355 26 401 72 q 242 -21 308 -21 q 130 26 176 -21 q 83 138 83 72 q 130 251 83 204 q 242 297 176 297 m 726 297 q 840 251 793 297 q 886 138 886 204 q 840 26 886 72 q 726 -21 793 -21 q 615 26 661 -21 q 568 138 568 72 q 615 251 568 204 q 726 297 661 297 m 1211 297 q 1324 251 1278 297 q 1371 138 1371 204 q 1324 26 1371 72 q 1211 -21 1278 -21 q 1099 26 1146 -21 q 1053 138 1053 72 q 1099 251 1053 204 q 1211 297 1146 297 z "},"‰":{"ha":2040,"x_min":32,"x_max":2008,"o":"m 117 697 q 75 735 117 697 q 32 893 32 774 q 121 1090 32 1013 q 342 1167 210 1167 q 558 1090 471 1167 q 646 893 646 1013 q 560 697 646 774 q 342 619 475 619 q 117 697 203 619 m 1099 1146 l 432 0 l 268 0 l 935 1146 l 1099 1146 m 248 985 q 230 967 248 985 q 211 893 211 949 q 247 802 211 838 q 339 767 282 767 q 428 802 393 767 q 464 893 464 838 q 428 985 464 949 q 339 1022 392 1022 q 248 985 285 1022 m 806 56 q 761 95 806 56 q 717 253 717 133 q 802 449 717 372 q 1026 526 888 526 q 1245 449 1160 526 q 1331 253 1331 372 q 1243 56 1331 133 q 1026 -21 1156 -21 q 806 56 894 -21 m 1483 56 q 1439 95 1483 56 q 1394 253 1394 133 q 1480 449 1394 372 q 1704 526 1565 526 q 1923 449 1838 526 q 2008 253 2008 372 q 1921 56 2008 133 q 1704 -21 1833 -21 q 1483 56 1572 -21 m 931 344 q 914 326 931 344 q 896 253 896 308 q 933 160 896 197 q 1024 124 969 124 q 1113 160 1076 124 q 1149 253 1149 197 q 1113 344 1149 308 q 1024 379 1078 379 q 931 344 967 379 m 1609 344 q 1591 326 1609 344 q 1574 253 1574 308 q 1610 160 1574 197 q 1701 124 1647 124 q 1790 160 1754 124 q 1826 253 1826 197 q 1791 344 1826 308 q 1701 379 1756 379 q 1609 344 1644 379 z "},"‹":{"ha":521,"x_min":46,"x_max":446,"o":"m 317 39 l 46 386 l 317 733 l 446 632 l 254 386 l 446 140 l 317 39 z "},"›":{"ha":521,"x_min":75,"x_max":475,"o":"m 75 140 l 267 386 l 75 632 l 204 733 l 475 386 l 204 39 l 75 140 z "},"⁄":{"ha":367,"x_min":-232,"x_max":599,"o":"m 599 1146 l -68 0 l -232 0 l 435 1146 l 599 1146 z "},"€":{"ha":1154,"x_min":32,"x_max":1128,"o":"m 897 614 l 415 614 q 413 575 413 600 q 415 531 413 561 l 897 531 l 897 381 l 476 381 q 789 242 581 242 q 905 260 849 242 q 988 294 961 278 l 1014 313 l 1128 85 q 1113 74 1122 81 q 1067 48 1103 67 q 992 15 1032 29 q 886 -10 951 1 q 751 -21 821 -21 q 395 92 558 -21 q 165 381 232 204 l 32 381 l 32 531 l 132 531 q 131 571 131 543 q 132 614 131 599 l 32 614 l 32 764 l 165 764 q 395 1053 232 940 q 751 1167 558 1167 q 956 1140 863 1167 q 1089 1088 1050 1114 l 1128 1061 l 1014 833 q 985 853 1004 842 q 907 885 965 865 q 789 904 849 904 q 475 764 581 904 l 897 764 l 897 614 z "},"™":{"ha":714,"x_min":24,"x_max":689,"o":"m 278 1146 l 278 1074 l 193 1074 l 193 788 l 108 788 l 108 1074 l 24 1074 l 24 1146 l 278 1146 m 606 788 l 589 1000 l 588 1000 l 514 790 l 465 790 l 392 1000 l 390 1000 l 372 788 l 290 788 l 322 1146 l 410 1146 l 489 940 l 568 1146 l 656 1146 l 689 788 l 606 788 z "},"−":{"ha":879,"x_min":83,"x_max":796,"o":"m 83 682 l 796 682 l 796 469 l 83 469 l 83 682 z "},"≠":{"ha":879,"x_min":49,"x_max":796,"o":"m 213 97 l 49 97 l 168 303 l 83 303 l 83 515 l 292 515 l 361 636 l 83 636 l 83 849 l 485 849 l 601 1049 l 765 1049 l 649 849 l 796 849 l 796 636 l 525 636 l 456 515 l 796 515 l 796 303 l 332 303 l 213 97 z "},"≤":{"ha":926,"x_min":83,"x_max":843,"o":"m 83 838 l 843 1146 l 843 949 l 346 754 l 843 563 l 843 365 l 83 674 l 83 838 m 83 213 l 843 213 l 843 0 l 83 0 l 83 213 z "},"≥":{"ha":926,"x_min":83,"x_max":843,"o":"m 83 563 l 581 754 l 83 949 l 83 1146 l 843 838 l 843 674 l 83 365 l 83 563 m 83 213 l 843 213 l 843 0 l 83 0 l 83 213 z "},"":{"ha":715,"x_min":0,"x_max":715,"o":"m 0 715 l 715 715 l 715 0 l 0 0 l 0 715 z "},"ﬀ":{"ha":1042,"x_min":50,"x_max":1128,"o":"m 646 713 l 646 864 q 721 1119 647 1024 q 925 1215 794 1215 q 1031 1199 981 1215 q 1106 1167 1082 1183 l 1128 1151 l 1042 978 q 968 997 1008 997 q 907 966 922 997 q 892 857 892 935 l 892 713 l 1056 713 l 1056 525 l 892 525 l 892 0 l 646 0 l 646 525 l 399 525 l 399 0 l 153 0 l 153 525 l 50 525 l 50 713 l 153 713 l 153 864 q 228 1119 154 1024 q 432 1215 301 1215 q 538 1199 488 1215 q 611 1167 589 1183 l 635 1151 l 549 978 q 475 997 515 997 q 414 966 429 997 q 399 857 399 935 l 399 713 l 646 713 z "},"ﬁ":{"ha":933,"x_min":22,"x_max":850,"o":"m 604 0 l 604 525 l 371 525 l 371 0 l 125 0 l 125 525 l 22 525 l 22 713 l 125 713 l 125 864 q 201 1120 126 1025 q 418 1215 276 1215 q 525 1203 472 1215 q 615 1174 578 1192 q 681 1140 651 1157 q 725 1111 710 1124 l 739 1100 l 653 926 q 490 999 564 999 q 395 967 419 999 q 371 857 371 935 l 371 713 l 850 713 l 850 0 l 604 0 z "},"ﬂ":{"ha":933,"x_min":22,"x_max":850,"o":"m 125 713 l 125 864 q 200 1119 126 1024 q 404 1215 274 1215 q 578 1171 501 1215 l 521 978 q 447 997 488 997 q 386 966 401 997 q 371 857 371 935 l 371 713 l 535 713 l 535 525 l 371 525 l 371 0 l 125 0 l 125 525 l 22 525 l 22 713 l 125 713 m 604 0 l 604 1194 l 850 1194 l 850 0 l 604 0 z "},"ﬃ":{"ha":1454,"x_min":50,"x_max":1371,"o":"m 1125 0 l 1125 525 l 892 525 l 892 0 l 646 0 l 646 525 l 399 525 l 399 0 l 153 0 l 153 525 l 50 525 l 50 713 l 153 713 l 153 864 q 228 1119 154 1024 q 432 1215 301 1215 q 538 1199 488 1215 q 611 1167 589 1183 l 635 1151 l 549 978 q 475 997 515 997 q 414 966 429 997 q 399 857 399 935 l 399 713 l 646 713 l 646 864 q 722 1120 647 1025 q 939 1215 797 1215 q 1046 1203 993 1215 q 1135 1174 1099 1192 q 1201 1140 1172 1157 q 1244 1111 1231 1124 l 1260 1100 l 1174 926 q 1011 999 1085 999 q 916 967 940 999 q 892 857 892 935 l 892 713 l 1371 713 l 1371 0 l 1125 0 z "},"ﬄ":{"ha":1454,"x_min":50,"x_max":1371,"o":"m 153 713 l 153 864 q 228 1119 154 1024 q 432 1215 301 1215 q 538 1199 488 1215 q 611 1167 589 1183 l 635 1151 l 549 978 q 475 997 515 997 q 414 966 429 997 q 399 857 399 935 l 399 713 l 646 713 l 646 864 q 721 1119 647 1024 q 925 1215 794 1215 q 1099 1171 1022 1215 l 1042 978 q 968 997 1008 997 q 907 966 922 997 q 892 857 892 935 l 892 713 l 1056 713 l 1056 525 l 892 525 l 892 0 l 646 0 l 646 525 l 399 525 l 399 0 l 153 0 l 153 525 l 50 525 l 50 713 l 153 713 m 1125 0 l 1125 1194 l 1371 1194 l 1371 0 l 1125 0 z "}}}
